<mxfile host="65bd71144e">
    <diagram name="Pagina-1" id="TeMVZNCcZgpZDrzHFS8o">
        <mxGraphModel dx="1522" dy="520" grid="1" gridSize="10" guides="1" tooltips="1" connect="1" arrows="1" fold="1" page="1" pageScale="1" pageWidth="827" pageHeight="1169" background="#ffffff" math="0" shadow="1">
            <root>
                <mxCell id="0"/>
                <mxCell id="1" parent="0"/>
                <mxCell id="49" style="edgeStyle=none;html=1;fontColor=default;" edge="1" parent="1" source="8" target="19">
                    <mxGeometry relative="1" as="geometry"/>
                </mxCell>
                <mxCell id="50" style="edgeStyle=none;html=1;exitX=1;exitY=0;exitDx=0;exitDy=0;entryX=0;entryY=0.5;entryDx=0;entryDy=0;fontColor=default;" edge="1" parent="1" source="8" target="13">
                    <mxGeometry relative="1" as="geometry"/>
                </mxCell>
                <mxCell id="57" style="edgeStyle=none;html=1;exitX=0.5;exitY=1;exitDx=0;exitDy=0;entryX=0.5;entryY=0;entryDx=0;entryDy=0;fontColor=default;" edge="1" parent="1" source="8" target="52">
                    <mxGeometry relative="1" as="geometry"/>
                </mxCell>
                <mxCell id="8" value="Platoon Element" style="swimlane;whiteSpace=wrap;html=1;rounded=1;" vertex="1" parent="1">
                    <mxGeometry x="-684.68" y="160" width="150.27000000000007" height="140" as="geometry"/>
                </mxCell>
                <mxCell id="9" style="edgeStyle=orthogonalEdgeStyle;rounded=1;orthogonalLoop=1;jettySize=auto;html=1;exitX=1;exitY=0.5;exitDx=0;exitDy=0;entryX=0;entryY=0.5;entryDx=0;entryDy=0;" edge="1" parent="8" source="10" target="11">
                    <mxGeometry relative="1" as="geometry"/>
                </mxCell>
                <mxCell id="10" value="" style="shape=image;editableCssRules=.*;verticalLabelPosition=bottom;labelBackgroundColor=default;verticalAlign=top;aspect=fixed;imageAspect=0;image=data:image/svg+xml,PHN2ZyB4bWxuczp4bGluaz0iaHR0cDovL3d3dy53My5vcmcvMTk5OS94bGluayIgeG1sbnM9Imh0dHA6Ly93d3cudzMub3JnLzIwMDAvc3ZnIiB4bWw6c3BhY2U9InByZXNlcnZlIiB2aWV3Qm94PSIwIDAgMTQ0IDMyMS45IiBoZWlnaHQ9IjMyMS45cHgiIHdpZHRoPSIxNDRweCIgeT0iMHB4IiB4PSIwcHgiIGlkPSJMYXllcl8xIiB2ZXJzaW9uPSIxLjEiPgogIDxzdHlsZT4uY3VzdG9tLWNvbG9yIHsgZmlsbDogcmdiKDI1NSwgMjU1LCAyNTUpOyB9IDwvc3R5bGU+CiAgPHBhdGggZD0iTTEzNS4xNzYsMTgyLjAzOGwtMTIuMjctMjkuODhjLTIuMDczLTcuNzU4LDAuMTQ4LTUuOTA0LTAuMzQ0LTExLjAwOGMtMi40NDgtNS4xNDQtMTAuMjExLTI5LjE2OS0xNC4xODgtMjkuMTY5Vjk3LjU4MiYjMTA7ICAgIGMwLTEzLjkxOC0zLjIyNC0yNS4yLTcuMi0yNS4yYy01Ljk2NCwwLTExLjExMi05LjIxNi0xMS4xMTItMTcuMTY5YzIuNzUtMC4xODgsNi4wODMsMS4wODUsNy4xNDYtMC40NzkmIzEwOyAgICBjMC41OC0wLjYsMS4zMzUtMi4zMTQsMS41LTMuNDE3YzAuNzM0LTQuODk3LDIuMTczLTExLjU5MywwLjk2MS0xNS45NTZsMy4xODEtMC4zNzdjMCwwLDQuMjUtMTkuNTgzLTEzLjEyNS0yMi4yMDgmIzEwOyAgICBDNjMuMDg0LDguNzUsNjQuMTY3LDM5LjU2Nyw2NC4xNjcsMzkuNTY3bDMuMjY1LTAuMzg3Yy0wLjAyLDAuMjg5LTAuMDMyLDAuNTkxLTAuMDI3LDAuOTIxYzAuMTk4LDEuMTcyLDAuNTM2LDEuOTcyLDEuMDA4LDIuMzgmIzEwOyAgICBjMC4wNjUsMC4xMDMsMC4xNTgsMC4yMTEsMC4yNzMsMC4zMTljMC41MjcsMC40OTQsMS40MDQsMC44NzUsMS45NTgsMC44NTFjMy4yMDUsMC44NjksNS40MDQsMy44MTEsNS4zMyw3LjEzMSYjMTA7ICAgIGMtMS4yNTYsMy42OTMtMy43OCw2LjQwMi02Ljg0LDcuMzRjLTAuNjQ0LDAuOTM1LTIuMDAxLDEuOTY4LTMuOTAxLDIuOTY3Yy0zLjU0NywxLjg2Ny03LjUwNCwzLjE0MS0xMS40OSwzLjYwNSYjMTA7ICAgIGMtMi40NiwwLjI4Ny00Ljk4NSwwLjM2LTYuODkzLDEuNzU4VjM3LjE1aC0xLjMyOHYzMC42NjJjLTAuMDcsMC4wOTktMC4xNDQsMC4xOTMtMC4yMSwwLjNjLTMuMDIzLDQuODAyLTYuNTQ1LDkuMzAyLTkuMzk2LDE0LjIxJiMxMDsgICAgYy0yLjc5OSw0LjgxNy01LjAxNyw5Ljk2NS02Ljc0MiwxNS4yNTloLTE0LjRjLTMuOTc3LDAtNy4yLDMuMjI0LTcuMiw3LjJjMCw1Ljk2NCwxLjYxMiwxMC44LDMuNiwxMC44JiMxMDsgICAgYzAuMDktMC40NSwwLjYwMSw0LjM1NSwwLjUyNCw3LjMzOHMtMC4xMjUsMi40ODMtMC41MjQsMy40NjJjMCw3Ljk1Myw2LjQ0NywxNC40LDE0LjQsMTQuNHYxNC4zOTljMCw1Ljk2NSw2LjQ0NywxMC44LDE0LjQsMTAuOCYjMTA7ICAgIGMxMi40NjItMC4wODEsOC44MTctMC4yNDgsMTAuNjYsMTQuMjVjMS42MzUsMTIuNDAyLDQuMDYxLDI0LjIyNCw3LjA1LDM0LjM1MWMtMi4wODYsMC4yMDMtMi4yNzksMTcuMjgyLTAuNDMsMzguMTYmIzEwOyAgICBjMi45OTUsNDQuNzQyLTcuNjkyLDU0LjAzMy0zLjc2NSw1NC40ODJMOTksMzEzLjRjMi0zLDQtOCwwLTEwYy0yLjMzMy0wLjA4My0zLTEtNS4zMjMtMS4yNjdjLTAuNTE3LTAuMTYyLTEuMDQ5LTAuMzQtMS41ODMtMC41MjUmIzEwOyAgICBjLTIuMDMtMC43MDctNC4wNzQtMS41MzMtNS4zODktMi4xMTZsLTQuODM1LTcuNTI3Yy0wLjA3OC0yLjc0MiwwLjcxLTUuNDk5LDEuMzA1LTcuMTgzYzAuODYyLTYuMDYsMS43NzYtMTIuMDE1LDIuNzQtMTcuODYmIzEwOyAgICBjMS4yNzctNy43NDgsMC40Ni0xNC42ODgsMy4xNzktMjMuNTk2YzEuMDUyLTMuNDQ2LDIuMjkxLTYuNTE5LDIuOTE4LTEwLjA0OGMwLjc4My00LjQxMiwxLjQzNy04Ljg0NywxLjk2My0xMy4yOTcmIzEwOyAgICBjMi44NjctNS4wNjgsNC4zMjktMTUuMzA3LDMuNjAxLTI1LjE5OWMzLjMtNC42MzIsNC4yNTktOC44NDUsMi41NDYtMjIuMzg0TDk5LjY2NywxNTkuOWMxLjQxNC0yLjk4OCwyLjY5OC01LjMwMSwzLjg2Ny03LjA4MSYjMTA7ICAgIGw3LjYxLTUuMDA1YzEuNCwwLjYzMSwyLjM4MiwyLjEzNiwzLjEwNSwyLjg5OGMxLjAzMywwLjk1NSwyLjY1MSwzLjE0Niw0LjIxOSw0LjUzMmwxMy45MDYsMzAuNDA1bDMuOTE3LTIuMTI1di0xLjIwOCYjMTA7ICAgIEwxMzUuMTc2LDE4Mi4wMzh6IiBjbGFzcz0iY3VzdG9tLWNvbG9yIi8+Cjwvc3ZnPg==;imageBackground=none;rounded=1;" vertex="1" parent="8">
                    <mxGeometry y="28" width="50.09" height="112" as="geometry"/>
                </mxCell>
                <mxCell id="11" value="" style="shape=image;editableCssRules=.*;verticalLabelPosition=bottom;labelBackgroundColor=default;verticalAlign=top;aspect=fixed;imageAspect=0;image=data:image/svg+xml,PHN2ZyB4bWxuczp4bGluaz0iaHR0cDovL3d3dy53My5vcmcvMTk5OS94bGluayIgeG1sbnM9Imh0dHA6Ly93d3cudzMub3JnLzIwMDAvc3ZnIiB4bWw6c3BhY2U9InByZXNlcnZlIiB2aWV3Qm94PSIwIDAgMTQ0IDMyMS45IiBoZWlnaHQ9IjMyMS45cHgiIHdpZHRoPSIxNDRweCIgeT0iMHB4IiB4PSIwcHgiIGlkPSJMYXllcl8xIiB2ZXJzaW9uPSIxLjEiPgogIDxzdHlsZT4uY3VzdG9tLWNvbG9yIHsgZmlsbDogcmdiKDI1NSwgMjU1LCAyNTUpOyB9IDwvc3R5bGU+CiAgPHBhdGggZD0iTTEzNS4xNzYsMTgyLjAzOGwtMTIuMjctMjkuODhjLTIuMDczLTcuNzU4LDAuMTQ4LTUuOTA0LTAuMzQ0LTExLjAwOGMtMi40NDgtNS4xNDQtMTAuMjExLTI5LjE2OS0xNC4xODgtMjkuMTY5Vjk3LjU4MiYjMTA7ICAgIGMwLTEzLjkxOC0zLjIyNC0yNS4yLTcuMi0yNS4yYy01Ljk2NCwwLTExLjExMi05LjIxNi0xMS4xMTItMTcuMTY5YzIuNzUtMC4xODgsNi4wODMsMS4wODUsNy4xNDYtMC40NzkmIzEwOyAgICBjMC41OC0wLjYsMS4zMzUtMi4zMTQsMS41LTMuNDE3YzAuNzM0LTQuODk3LDIuMTczLTExLjU5MywwLjk2MS0xNS45NTZsMy4xODEtMC4zNzdjMCwwLDQuMjUtMTkuNTgzLTEzLjEyNS0yMi4yMDgmIzEwOyAgICBDNjMuMDg0LDguNzUsNjQuMTY3LDM5LjU2Nyw2NC4xNjcsMzkuNTY3bDMuMjY1LTAuMzg3Yy0wLjAyLDAuMjg5LTAuMDMyLDAuNTkxLTAuMDI3LDAuOTIxYzAuMTk4LDEuMTcyLDAuNTM2LDEuOTcyLDEuMDA4LDIuMzgmIzEwOyAgICBjMC4wNjUsMC4xMDMsMC4xNTgsMC4yMTEsMC4yNzMsMC4zMTljMC41MjcsMC40OTQsMS40MDQsMC44NzUsMS45NTgsMC44NTFjMy4yMDUsMC44NjksNS40MDQsMy44MTEsNS4zMyw3LjEzMSYjMTA7ICAgIGMtMS4yNTYsMy42OTMtMy43OCw2LjQwMi02Ljg0LDcuMzRjLTAuNjQ0LDAuOTM1LTIuMDAxLDEuOTY4LTMuOTAxLDIuOTY3Yy0zLjU0NywxLjg2Ny03LjUwNCwzLjE0MS0xMS40OSwzLjYwNSYjMTA7ICAgIGMtMi40NiwwLjI4Ny00Ljk4NSwwLjM2LTYuODkzLDEuNzU4VjM3LjE1aC0xLjMyOHYzMC42NjJjLTAuMDcsMC4wOTktMC4xNDQsMC4xOTMtMC4yMSwwLjNjLTMuMDIzLDQuODAyLTYuNTQ1LDkuMzAyLTkuMzk2LDE0LjIxJiMxMDsgICAgYy0yLjc5OSw0LjgxNy01LjAxNyw5Ljk2NS02Ljc0MiwxNS4yNTloLTE0LjRjLTMuOTc3LDAtNy4yLDMuMjI0LTcuMiw3LjJjMCw1Ljk2NCwxLjYxMiwxMC44LDMuNiwxMC44JiMxMDsgICAgYzAuMDktMC40NSwwLjYwMSw0LjM1NSwwLjUyNCw3LjMzOHMtMC4xMjUsMi40ODMtMC41MjQsMy40NjJjMCw3Ljk1Myw2LjQ0NywxNC40LDE0LjQsMTQuNHYxNC4zOTljMCw1Ljk2NSw2LjQ0NywxMC44LDE0LjQsMTAuOCYjMTA7ICAgIGMxMi40NjItMC4wODEsOC44MTctMC4yNDgsMTAuNjYsMTQuMjVjMS42MzUsMTIuNDAyLDQuMDYxLDI0LjIyNCw3LjA1LDM0LjM1MWMtMi4wODYsMC4yMDMtMi4yNzksMTcuMjgyLTAuNDMsMzguMTYmIzEwOyAgICBjMi45OTUsNDQuNzQyLTcuNjkyLDU0LjAzMy0zLjc2NSw1NC40ODJMOTksMzEzLjRjMi0zLDQtOCwwLTEwYy0yLjMzMy0wLjA4My0zLTEtNS4zMjMtMS4yNjdjLTAuNTE3LTAuMTYyLTEuMDQ5LTAuMzQtMS41ODMtMC41MjUmIzEwOyAgICBjLTIuMDMtMC43MDctNC4wNzQtMS41MzMtNS4zODktMi4xMTZsLTQuODM1LTcuNTI3Yy0wLjA3OC0yLjc0MiwwLjcxLTUuNDk5LDEuMzA1LTcuMTgzYzAuODYyLTYuMDYsMS43NzYtMTIuMDE1LDIuNzQtMTcuODYmIzEwOyAgICBjMS4yNzctNy43NDgsMC40Ni0xNC42ODgsMy4xNzktMjMuNTk2YzEuMDUyLTMuNDQ2LDIuMjkxLTYuNTE5LDIuOTE4LTEwLjA0OGMwLjc4My00LjQxMiwxLjQzNy04Ljg0NywxLjk2My0xMy4yOTcmIzEwOyAgICBjMi44NjctNS4wNjgsNC4zMjktMTUuMzA3LDMuNjAxLTI1LjE5OWMzLjMtNC42MzIsNC4yNTktOC44NDUsMi41NDYtMjIuMzg0TDk5LjY2NywxNTkuOWMxLjQxNC0yLjk4OCwyLjY5OC01LjMwMSwzLjg2Ny03LjA4MSYjMTA7ICAgIGw3LjYxLTUuMDA1YzEuNCwwLjYzMSwyLjM4MiwyLjEzNiwzLjEwNSwyLjg5OGMxLjAzMywwLjk1NSwyLjY1MSwzLjE0Niw0LjIxOSw0LjUzMmwxMy45MDYsMzAuNDA1bDMuOTE3LTIuMTI1di0xLjIwOCYjMTA7ICAgIEwxMzUuMTc2LDE4Mi4wMzh6IiBjbGFzcz0iY3VzdG9tLWNvbG9yIi8+Cjwvc3ZnPg==;imageBackground=none;rounded=1;" vertex="1" parent="8">
                    <mxGeometry x="50.090000000000025" y="28" width="50.09" height="112" as="geometry"/>
                </mxCell>
                <mxCell id="51" value="" style="shape=image;editableCssRules=.*;verticalLabelPosition=bottom;labelBackgroundColor=default;verticalAlign=top;aspect=fixed;imageAspect=0;image=data:image/svg+xml,PHN2ZyB4bWxuczp4bGluaz0iaHR0cDovL3d3dy53My5vcmcvMTk5OS94bGluayIgeG1sbnM9Imh0dHA6Ly93d3cudzMub3JnLzIwMDAvc3ZnIiB4bWw6c3BhY2U9InByZXNlcnZlIiB2aWV3Qm94PSIwIDAgMTQ0IDMyMS45IiBoZWlnaHQ9IjMyMS45cHgiIHdpZHRoPSIxNDRweCIgeT0iMHB4IiB4PSIwcHgiIGlkPSJMYXllcl8xIiB2ZXJzaW9uPSIxLjEiPgogIDxzdHlsZT4uY3VzdG9tLWNvbG9yIHsgZmlsbDogcmdiKDE3OSwgMTc5LCAxNzkpOyB9IDwvc3R5bGU+CiAgPHBhdGggZD0iTTEzNS4xNzYsMTgyLjAzOGwtMTIuMjctMjkuODhjLTIuMDczLTcuNzU4LDAuMTQ4LTUuOTA0LTAuMzQ0LTExLjAwOGMtMi40NDgtNS4xNDQtMTAuMjExLTI5LjE2OS0xNC4xODgtMjkuMTY5Vjk3LjU4MiYjMTA7ICAgIGMwLTEzLjkxOC0zLjIyNC0yNS4yLTcuMi0yNS4yYy01Ljk2NCwwLTExLjExMi05LjIxNi0xMS4xMTItMTcuMTY5YzIuNzUtMC4xODgsNi4wODMsMS4wODUsNy4xNDYtMC40NzkmIzEwOyAgICBjMC41OC0wLjYsMS4zMzUtMi4zMTQsMS41LTMuNDE3YzAuNzM0LTQuODk3LDIuMTczLTExLjU5MywwLjk2MS0xNS45NTZsMy4xODEtMC4zNzdjMCwwLDQuMjUtMTkuNTgzLTEzLjEyNS0yMi4yMDgmIzEwOyAgICBDNjMuMDg0LDguNzUsNjQuMTY3LDM5LjU2Nyw2NC4xNjcsMzkuNTY3bDMuMjY1LTAuMzg3Yy0wLjAyLDAuMjg5LTAuMDMyLDAuNTkxLTAuMDI3LDAuOTIxYzAuMTk4LDEuMTcyLDAuNTM2LDEuOTcyLDEuMDA4LDIuMzgmIzEwOyAgICBjMC4wNjUsMC4xMDMsMC4xNTgsMC4yMTEsMC4yNzMsMC4zMTljMC41MjcsMC40OTQsMS40MDQsMC44NzUsMS45NTgsMC44NTFjMy4yMDUsMC44NjksNS40MDQsMy44MTEsNS4zMyw3LjEzMSYjMTA7ICAgIGMtMS4yNTYsMy42OTMtMy43OCw2LjQwMi02Ljg0LDcuMzRjLTAuNjQ0LDAuOTM1LTIuMDAxLDEuOTY4LTMuOTAxLDIuOTY3Yy0zLjU0NywxLjg2Ny03LjUwNCwzLjE0MS0xMS40OSwzLjYwNSYjMTA7ICAgIGMtMi40NiwwLjI4Ny00Ljk4NSwwLjM2LTYuODkzLDEuNzU4VjM3LjE1aC0xLjMyOHYzMC42NjJjLTAuMDcsMC4wOTktMC4xNDQsMC4xOTMtMC4yMSwwLjNjLTMuMDIzLDQuODAyLTYuNTQ1LDkuMzAyLTkuMzk2LDE0LjIxJiMxMDsgICAgYy0yLjc5OSw0LjgxNy01LjAxNyw5Ljk2NS02Ljc0MiwxNS4yNTloLTE0LjRjLTMuOTc3LDAtNy4yLDMuMjI0LTcuMiw3LjJjMCw1Ljk2NCwxLjYxMiwxMC44LDMuNiwxMC44JiMxMDsgICAgYzAuMDktMC40NSwwLjYwMSw0LjM1NSwwLjUyNCw3LjMzOHMtMC4xMjUsMi40ODMtMC41MjQsMy40NjJjMCw3Ljk1Myw2LjQ0NywxNC40LDE0LjQsMTQuNHYxNC4zOTljMCw1Ljk2NSw2LjQ0NywxMC44LDE0LjQsMTAuOCYjMTA7ICAgIGMxMi40NjItMC4wODEsOC44MTctMC4yNDgsMTAuNjYsMTQuMjVjMS42MzUsMTIuNDAyLDQuMDYxLDI0LjIyNCw3LjA1LDM0LjM1MWMtMi4wODYsMC4yMDMtMi4yNzksMTcuMjgyLTAuNDMsMzguMTYmIzEwOyAgICBjMi45OTUsNDQuNzQyLTcuNjkyLDU0LjAzMy0zLjc2NSw1NC40ODJMOTksMzEzLjRjMi0zLDQtOCwwLTEwYy0yLjMzMy0wLjA4My0zLTEtNS4zMjMtMS4yNjdjLTAuNTE3LTAuMTYyLTEuMDQ5LTAuMzQtMS41ODMtMC41MjUmIzEwOyAgICBjLTIuMDMtMC43MDctNC4wNzQtMS41MzMtNS4zODktMi4xMTZsLTQuODM1LTcuNTI3Yy0wLjA3OC0yLjc0MiwwLjcxLTUuNDk5LDEuMzA1LTcuMTgzYzAuODYyLTYuMDYsMS43NzYtMTIuMDE1LDIuNzQtMTcuODYmIzEwOyAgICBjMS4yNzctNy43NDgsMC40Ni0xNC42ODgsMy4xNzktMjMuNTk2YzEuMDUyLTMuNDQ2LDIuMjkxLTYuNTE5LDIuOTE4LTEwLjA0OGMwLjc4My00LjQxMiwxLjQzNy04Ljg0NywxLjk2My0xMy4yOTcmIzEwOyAgICBjMi44NjctNS4wNjgsNC4zMjktMTUuMzA3LDMuNjAxLTI1LjE5OWMzLjMtNC42MzIsNC4yNTktOC44NDUsMi41NDYtMjIuMzg0TDk5LjY2NywxNTkuOWMxLjQxNC0yLjk4OCwyLjY5OC01LjMwMSwzLjg2Ny03LjA4MSYjMTA7ICAgIGw3LjYxLTUuMDA1YzEuNCwwLjYzMSwyLjM4MiwyLjEzNiwzLjEwNSwyLjg5OGMxLjAzMywwLjk1NSwyLjY1MSwzLjE0Niw0LjIxOSw0LjUzMmwxMy45MDYsMzAuNDA1bDMuOTE3LTIuMTI1di0xLjIwOCYjMTA7ICAgIEwxMzUuMTc2LDE4Mi4wMzh6IiBjbGFzcz0iY3VzdG9tLWNvbG9yIi8+Cjwvc3ZnPg==;imageBackground=none;fillStyle=zigzag-line;rounded=1;" vertex="1" parent="8">
                    <mxGeometry x="100.18000000000006" y="28" width="50.09" height="112" as="geometry"/>
                </mxCell>
                <mxCell id="12" value="Infantry Squad" style="swimlane;whiteSpace=wrap;html=1;rounded=1;fillStyle=auto;shadow=0;" vertex="1" parent="1">
                    <mxGeometry x="-500" y="10" width="310" height="140" as="geometry"/>
                </mxCell>
                <mxCell id="13" value="" style="shape=image;editableCssRules=.*;verticalLabelPosition=bottom;labelBackgroundColor=default;verticalAlign=top;aspect=fixed;imageAspect=0;image=data:image/svg+xml,PHN2ZyB4bWw6c3BhY2U9InByZXNlcnZlIiB2aWV3Qm94PSIwIDAgMTQ0IDMyMS45IiBoZWlnaHQ9IjMyMS45cHgiIHdpZHRoPSIxNDRweCIgeT0iMHB4IiB4PSIwcHgiIHhtbG5zOnhsaW5rPSJodHRwOi8vd3d3LnczLm9yZy8xOTk5L3hsaW5rIiB4bWxucz0iaHR0cDovL3d3dy53My5vcmcvMjAwMC9zdmciIGlkPSJMYXllcl8xIiB2ZXJzaW9uPSIxLjEiPiYjeGE7ICA8c3R5bGU+LmN1c3RvbS1jb2xvciB7IGZpbGw6IHJnYigyNTUsIDI1NSwgNTEpOyB9IDwvc3R5bGU+JiN4YTsgIDxwYXRoIGQ9Ik0xMzUuMTc2LDE4Mi4wMzhsLTEyLjI3LTI5Ljg4Yy0yLjA3My03Ljc1OCwwLjE0OC01LjkwNC0wLjM0NC0xMS4wMDhjLTIuNDQ4LTUuMTQ0LTEwLjIxMS0yOS4xNjktMTQuMTg4LTI5LjE2OVY5Ny41ODImI3hBOyAgICBjMC0xMy45MTgtMy4yMjQtMjUuMi03LjItMjUuMmMtNS45NjQsMC0xMS4xMTItOS4yMTYtMTEuMTEyLTE3LjE2OWMyLjc1LTAuMTg4LDYuMDgzLDEuMDg1LDcuMTQ2LTAuNDc5JiN4QTsgICAgYzAuNTgtMC42LDEuMzM1LTIuMzE0LDEuNS0zLjQxN2MwLjczNC00Ljg5NywyLjE3My0xMS41OTMsMC45NjEtMTUuOTU2bDMuMTgxLTAuMzc3YzAsMCw0LjI1LTE5LjU4My0xMy4xMjUtMjIuMjA4JiN4QTsgICAgQzYzLjA4NCw4Ljc1LDY0LjE2NywzOS41NjcsNjQuMTY3LDM5LjU2N2wzLjI2NS0wLjM4N2MtMC4wMiwwLjI4OS0wLjAzMiwwLjU5MS0wLjAyNywwLjkyMWMwLjE5OCwxLjE3MiwwLjUzNiwxLjk3MiwxLjAwOCwyLjM4JiN4QTsgICAgYzAuMDY1LDAuMTAzLDAuMTU4LDAuMjExLDAuMjczLDAuMzE5YzAuNTI3LDAuNDk0LDEuNDA0LDAuODc1LDEuOTU4LDAuODUxYzMuMjA1LDAuODY5LDUuNDA0LDMuODExLDUuMzMsNy4xMzEmI3hBOyAgICBjLTEuMjU2LDMuNjkzLTMuNzgsNi40MDItNi44NCw3LjM0Yy0wLjY0NCwwLjkzNS0yLjAwMSwxLjk2OC0zLjkwMSwyLjk2N2MtMy41NDcsMS44NjctNy41MDQsMy4xNDEtMTEuNDksMy42MDUmI3hBOyAgICBjLTIuNDYsMC4yODctNC45ODUsMC4zNi02Ljg5MywxLjc1OFYzNy4xNWgtMS4zMjh2MzAuNjYyYy0wLjA3LDAuMDk5LTAuMTQ0LDAuMTkzLTAuMjEsMC4zYy0zLjAyMyw0LjgwMi02LjU0NSw5LjMwMi05LjM5NiwxNC4yMSYjeEE7ICAgIGMtMi43OTksNC44MTctNS4wMTcsOS45NjUtNi43NDIsMTUuMjU5aC0xNC40Yy0zLjk3NywwLTcuMiwzLjIyNC03LjIsNy4yYzAsNS45NjQsMS42MTIsMTAuOCwzLjYsMTAuOCYjeEE7ICAgIGMwLjA5LTAuNDUsMC42MDEsNC4zNTUsMC41MjQsNy4zMzhzLTAuMTI1LDIuNDgzLTAuNTI0LDMuNDYyYzAsNy45NTMsNi40NDcsMTQuNCwxNC40LDE0LjR2MTQuMzk5YzAsNS45NjUsNi40NDcsMTAuOCwxNC40LDEwLjgmI3hBOyAgICBjMTIuNDYyLTAuMDgxLDguODE3LTAuMjQ4LDEwLjY2LDE0LjI1YzEuNjM1LDEyLjQwMiw0LjA2MSwyNC4yMjQsNy4wNSwzNC4zNTFjLTIuMDg2LDAuMjAzLTIuMjc5LDE3LjI4Mi0wLjQzLDM4LjE2JiN4QTsgICAgYzIuOTk1LDQ0Ljc0Mi03LjY5Miw1NC4wMzMtMy43NjUsNTQuNDgyTDk5LDMxMy40YzItMyw0LTgsMC0xMGMtMi4zMzMtMC4wODMtMy0xLTUuMzIzLTEuMjY3Yy0wLjUxNy0wLjE2Mi0xLjA0OS0wLjM0LTEuNTgzLTAuNTI1JiN4QTsgICAgYy0yLjAzLTAuNzA3LTQuMDc0LTEuNTMzLTUuMzg5LTIuMTE2bC00LjgzNS03LjUyN2MtMC4wNzgtMi43NDIsMC43MS01LjQ5OSwxLjMwNS03LjE4M2MwLjg2Mi02LjA2LDEuNzc2LTEyLjAxNSwyLjc0LTE3Ljg2JiN4QTsgICAgYzEuMjc3LTcuNzQ4LDAuNDYtMTQuNjg4LDMuMTc5LTIzLjU5NmMxLjA1Mi0zLjQ0NiwyLjI5MS02LjUxOSwyLjkxOC0xMC4wNDhjMC43ODMtNC40MTIsMS40MzctOC44NDcsMS45NjMtMTMuMjk3JiN4QTsgICAgYzIuODY3LTUuMDY4LDQuMzI5LTE1LjMwNywzLjYwMS0yNS4xOTljMy4zLTQuNjMyLDQuMjU5LTguODQ1LDIuNTQ2LTIyLjM4NEw5OS42NjcsMTU5LjljMS40MTQtMi45ODgsMi42OTgtNS4zMDEsMy44NjctNy4wODEmI3hBOyAgICBsNy42MS01LjAwNWMxLjQsMC42MzEsMi4zODIsMi4xMzYsMy4xMDUsMi44OThjMS4wMzMsMC45NTUsMi42NTEsMy4xNDYsNC4yMTksNC41MzJsMTMuOTA2LDMwLjQwNWwzLjkxNy0yLjEyNXYtMS4yMDgmI3hBOyAgICBMMTM1LjE3NiwxODIuMDM4eiIgY2xhc3M9ImN1c3RvbS1jb2xvciIvPiYjeGE7PC9zdmc+;imageBackground=none;rounded=1;" vertex="1" parent="12">
                    <mxGeometry y="28" width="50.09" height="112" as="geometry"/>
                </mxCell>
                <mxCell id="14" value="" style="shape=image;editableCssRules=.*;verticalLabelPosition=bottom;labelBackgroundColor=default;verticalAlign=top;aspect=fixed;imageAspect=0;image=data:image/svg+xml,PHN2ZyB4bWw6c3BhY2U9InByZXNlcnZlIiB2aWV3Qm94PSIwIDAgMTQ0IDMyMS45IiBoZWlnaHQ9IjMyMS45cHgiIHdpZHRoPSIxNDRweCIgeT0iMHB4IiB4PSIwcHgiIHhtbG5zOnhsaW5rPSJodHRwOi8vd3d3LnczLm9yZy8xOTk5L3hsaW5rIiB4bWxucz0iaHR0cDovL3d3dy53My5vcmcvMjAwMC9zdmciIGlkPSJMYXllcl8xIiB2ZXJzaW9uPSIxLjEiPiYjeGE7ICA8c3R5bGU+LmN1c3RvbS1jb2xvciB7IGZpbGw6IHJnYigyNTUsIDI1NSwgNTEpOyB9IDwvc3R5bGU+JiN4YTsgIDxwYXRoIGQ9Ik0xMzUuMTc2LDE4Mi4wMzhsLTEyLjI3LTI5Ljg4Yy0yLjA3My03Ljc1OCwwLjE0OC01LjkwNC0wLjM0NC0xMS4wMDhjLTIuNDQ4LTUuMTQ0LTEwLjIxMS0yOS4xNjktMTQuMTg4LTI5LjE2OVY5Ny41ODImI3hBOyAgICBjMC0xMy45MTgtMy4yMjQtMjUuMi03LjItMjUuMmMtNS45NjQsMC0xMS4xMTItOS4yMTYtMTEuMTEyLTE3LjE2OWMyLjc1LTAuMTg4LDYuMDgzLDEuMDg1LDcuMTQ2LTAuNDc5JiN4QTsgICAgYzAuNTgtMC42LDEuMzM1LTIuMzE0LDEuNS0zLjQxN2MwLjczNC00Ljg5NywyLjE3My0xMS41OTMsMC45NjEtMTUuOTU2bDMuMTgxLTAuMzc3YzAsMCw0LjI1LTE5LjU4My0xMy4xMjUtMjIuMjA4JiN4QTsgICAgQzYzLjA4NCw4Ljc1LDY0LjE2NywzOS41NjcsNjQuMTY3LDM5LjU2N2wzLjI2NS0wLjM4N2MtMC4wMiwwLjI4OS0wLjAzMiwwLjU5MS0wLjAyNywwLjkyMWMwLjE5OCwxLjE3MiwwLjUzNiwxLjk3MiwxLjAwOCwyLjM4JiN4QTsgICAgYzAuMDY1LDAuMTAzLDAuMTU4LDAuMjExLDAuMjczLDAuMzE5YzAuNTI3LDAuNDk0LDEuNDA0LDAuODc1LDEuOTU4LDAuODUxYzMuMjA1LDAuODY5LDUuNDA0LDMuODExLDUuMzMsNy4xMzEmI3hBOyAgICBjLTEuMjU2LDMuNjkzLTMuNzgsNi40MDItNi44NCw3LjM0Yy0wLjY0NCwwLjkzNS0yLjAwMSwxLjk2OC0zLjkwMSwyLjk2N2MtMy41NDcsMS44NjctNy41MDQsMy4xNDEtMTEuNDksMy42MDUmI3hBOyAgICBjLTIuNDYsMC4yODctNC45ODUsMC4zNi02Ljg5MywxLjc1OFYzNy4xNWgtMS4zMjh2MzAuNjYyYy0wLjA3LDAuMDk5LTAuMTQ0LDAuMTkzLTAuMjEsMC4zYy0zLjAyMyw0LjgwMi02LjU0NSw5LjMwMi05LjM5NiwxNC4yMSYjeEE7ICAgIGMtMi43OTksNC44MTctNS4wMTcsOS45NjUtNi43NDIsMTUuMjU5aC0xNC40Yy0zLjk3NywwLTcuMiwzLjIyNC03LjIsNy4yYzAsNS45NjQsMS42MTIsMTAuOCwzLjYsMTAuOCYjeEE7ICAgIGMwLjA5LTAuNDUsMC42MDEsNC4zNTUsMC41MjQsNy4zMzhzLTAuMTI1LDIuNDgzLTAuNTI0LDMuNDYyYzAsNy45NTMsNi40NDcsMTQuNCwxNC40LDE0LjR2MTQuMzk5YzAsNS45NjUsNi40NDcsMTAuOCwxNC40LDEwLjgmI3hBOyAgICBjMTIuNDYyLTAuMDgxLDguODE3LTAuMjQ4LDEwLjY2LDE0LjI1YzEuNjM1LDEyLjQwMiw0LjA2MSwyNC4yMjQsNy4wNSwzNC4zNTFjLTIuMDg2LDAuMjAzLTIuMjc5LDE3LjI4Mi0wLjQzLDM4LjE2JiN4QTsgICAgYzIuOTk1LDQ0Ljc0Mi03LjY5Miw1NC4wMzMtMy43NjUsNTQuNDgyTDk5LDMxMy40YzItMyw0LTgsMC0xMGMtMi4zMzMtMC4wODMtMy0xLTUuMzIzLTEuMjY3Yy0wLjUxNy0wLjE2Mi0xLjA0OS0wLjM0LTEuNTgzLTAuNTI1JiN4QTsgICAgYy0yLjAzLTAuNzA3LTQuMDc0LTEuNTMzLTUuMzg5LTIuMTE2bC00LjgzNS03LjUyN2MtMC4wNzgtMi43NDIsMC43MS01LjQ5OSwxLjMwNS03LjE4M2MwLjg2Mi02LjA2LDEuNzc2LTEyLjAxNSwyLjc0LTE3Ljg2JiN4QTsgICAgYzEuMjc3LTcuNzQ4LDAuNDYtMTQuNjg4LDMuMTc5LTIzLjU5NmMxLjA1Mi0zLjQ0NiwyLjI5MS02LjUxOSwyLjkxOC0xMC4wNDhjMC43ODMtNC40MTIsMS40MzctOC44NDcsMS45NjMtMTMuMjk3JiN4QTsgICAgYzIuODY3LTUuMDY4LDQuMzI5LTE1LjMwNywzLjYwMS0yNS4xOTljMy4zLTQuNjMyLDQuMjU5LTguODQ1LDIuNTQ2LTIyLjM4NEw5OS42NjcsMTU5LjljMS40MTQtMi45ODgsMi42OTgtNS4zMDEsMy44NjctNy4wODEmI3hBOyAgICBsNy42MS01LjAwNWMxLjQsMC42MzEsMi4zODIsMi4xMzYsMy4xMDUsMi44OThjMS4wMzMsMC45NTUsMi42NTEsMy4xNDYsNC4yMTksNC41MzJsMTMuOTA2LDMwLjQwNWwzLjkxNy0yLjEyNXYtMS4yMDgmI3hBOyAgICBMMTM1LjE3NiwxODIuMDM4eiIgY2xhc3M9ImN1c3RvbS1jb2xvciIvPiYjeGE7PC9zdmc+;imageBackground=none;rounded=1;" vertex="1" parent="12">
                    <mxGeometry x="50.090000000000025" y="28" width="50.09" height="112" as="geometry"/>
                </mxCell>
                <mxCell id="15" value="" style="shape=image;editableCssRules=.*;verticalLabelPosition=bottom;labelBackgroundColor=default;verticalAlign=top;aspect=fixed;imageAspect=0;image=data:image/svg+xml,PHN2ZyB4bWw6c3BhY2U9InByZXNlcnZlIiB2aWV3Qm94PSIwIDAgMTQ0IDMyMS45IiBoZWlnaHQ9IjMyMS45cHgiIHdpZHRoPSIxNDRweCIgeT0iMHB4IiB4PSIwcHgiIHhtbG5zOnhsaW5rPSJodHRwOi8vd3d3LnczLm9yZy8xOTk5L3hsaW5rIiB4bWxucz0iaHR0cDovL3d3dy53My5vcmcvMjAwMC9zdmciIGlkPSJMYXllcl8xIiB2ZXJzaW9uPSIxLjEiPiYjeGE7ICA8c3R5bGU+LmN1c3RvbS1jb2xvciB7IGZpbGw6IHJnYigyNTUsIDAsIDApOyB9IDwvc3R5bGU+JiN4YTsgIDxwYXRoIGQ9Ik0xMzUuMTc2LDE4Mi4wMzhsLTEyLjI3LTI5Ljg4Yy0yLjA3My03Ljc1OCwwLjE0OC01LjkwNC0wLjM0NC0xMS4wMDhjLTIuNDQ4LTUuMTQ0LTEwLjIxMS0yOS4xNjktMTQuMTg4LTI5LjE2OVY5Ny41ODImI3hBOyAgICBjMC0xMy45MTgtMy4yMjQtMjUuMi03LjItMjUuMmMtNS45NjQsMC0xMS4xMTItOS4yMTYtMTEuMTEyLTE3LjE2OWMyLjc1LTAuMTg4LDYuMDgzLDEuMDg1LDcuMTQ2LTAuNDc5JiN4QTsgICAgYzAuNTgtMC42LDEuMzM1LTIuMzE0LDEuNS0zLjQxN2MwLjczNC00Ljg5NywyLjE3My0xMS41OTMsMC45NjEtMTUuOTU2bDMuMTgxLTAuMzc3YzAsMCw0LjI1LTE5LjU4My0xMy4xMjUtMjIuMjA4JiN4QTsgICAgQzYzLjA4NCw4Ljc1LDY0LjE2NywzOS41NjcsNjQuMTY3LDM5LjU2N2wzLjI2NS0wLjM4N2MtMC4wMiwwLjI4OS0wLjAzMiwwLjU5MS0wLjAyNywwLjkyMWMwLjE5OCwxLjE3MiwwLjUzNiwxLjk3MiwxLjAwOCwyLjM4JiN4QTsgICAgYzAuMDY1LDAuMTAzLDAuMTU4LDAuMjExLDAuMjczLDAuMzE5YzAuNTI3LDAuNDk0LDEuNDA0LDAuODc1LDEuOTU4LDAuODUxYzMuMjA1LDAuODY5LDUuNDA0LDMuODExLDUuMzMsNy4xMzEmI3hBOyAgICBjLTEuMjU2LDMuNjkzLTMuNzgsNi40MDItNi44NCw3LjM0Yy0wLjY0NCwwLjkzNS0yLjAwMSwxLjk2OC0zLjkwMSwyLjk2N2MtMy41NDcsMS44NjctNy41MDQsMy4xNDEtMTEuNDksMy42MDUmI3hBOyAgICBjLTIuNDYsMC4yODctNC45ODUsMC4zNi02Ljg5MywxLjc1OFYzNy4xNWgtMS4zMjh2MzAuNjYyYy0wLjA3LDAuMDk5LTAuMTQ0LDAuMTkzLTAuMjEsMC4zYy0zLjAyMyw0LjgwMi02LjU0NSw5LjMwMi05LjM5NiwxNC4yMSYjeEE7ICAgIGMtMi43OTksNC44MTctNS4wMTcsOS45NjUtNi43NDIsMTUuMjU5aC0xNC40Yy0zLjk3NywwLTcuMiwzLjIyNC03LjIsNy4yYzAsNS45NjQsMS42MTIsMTAuOCwzLjYsMTAuOCYjeEE7ICAgIGMwLjA5LTAuNDUsMC42MDEsNC4zNTUsMC41MjQsNy4zMzhzLTAuMTI1LDIuNDgzLTAuNTI0LDMuNDYyYzAsNy45NTMsNi40NDcsMTQuNCwxNC40LDE0LjR2MTQuMzk5YzAsNS45NjUsNi40NDcsMTAuOCwxNC40LDEwLjgmI3hBOyAgICBjMTIuNDYyLTAuMDgxLDguODE3LTAuMjQ4LDEwLjY2LDE0LjI1YzEuNjM1LDEyLjQwMiw0LjA2MSwyNC4yMjQsNy4wNSwzNC4zNTFjLTIuMDg2LDAuMjAzLTIuMjc5LDE3LjI4Mi0wLjQzLDM4LjE2JiN4QTsgICAgYzIuOTk1LDQ0Ljc0Mi03LjY5Miw1NC4wMzMtMy43NjUsNTQuNDgyTDk5LDMxMy40YzItMyw0LTgsMC0xMGMtMi4zMzMtMC4wODMtMy0xLTUuMzIzLTEuMjY3Yy0wLjUxNy0wLjE2Mi0xLjA0OS0wLjM0LTEuNTgzLTAuNTI1JiN4QTsgICAgYy0yLjAzLTAuNzA3LTQuMDc0LTEuNTMzLTUuMzg5LTIuMTE2bC00LjgzNS03LjUyN2MtMC4wNzgtMi43NDIsMC43MS01LjQ5OSwxLjMwNS03LjE4M2MwLjg2Mi02LjA2LDEuNzc2LTEyLjAxNSwyLjc0LTE3Ljg2JiN4QTsgICAgYzEuMjc3LTcuNzQ4LDAuNDYtMTQuNjg4LDMuMTc5LTIzLjU5NmMxLjA1Mi0zLjQ0NiwyLjI5MS02LjUxOSwyLjkxOC0xMC4wNDhjMC43ODMtNC40MTIsMS40MzctOC44NDcsMS45NjMtMTMuMjk3JiN4QTsgICAgYzIuODY3LTUuMDY4LDQuMzI5LTE1LjMwNywzLjYwMS0yNS4xOTljMy4zLTQuNjMyLDQuMjU5LTguODQ1LDIuNTQ2LTIyLjM4NEw5OS42NjcsMTU5LjljMS40MTQtMi45ODgsMi42OTgtNS4zMDEsMy44NjctNy4wODEmI3hBOyAgICBsNy42MS01LjAwNWMxLjQsMC42MzEsMi4zODIsMi4xMzYsMy4xMDUsMi44OThjMS4wMzMsMC45NTUsMi42NTEsMy4xNDYsNC4yMTksNC41MzJsMTMuOTA2LDMwLjQwNWwzLjkxNy0yLjEyNXYtMS4yMDgmI3hBOyAgICBMMTM1LjE3NiwxODIuMDM4eiIgY2xhc3M9ImN1c3RvbS1jb2xvciIvPiYjeGE7PC9zdmc+;imageBackground=none;fontColor=default;rounded=1;" vertex="1" parent="12">
                    <mxGeometry x="100.18000000000004" y="28" width="50.09" height="112" as="geometry"/>
                </mxCell>
                <mxCell id="16" value="" style="shape=image;editableCssRules=.*;verticalLabelPosition=bottom;labelBackgroundColor=default;verticalAlign=top;aspect=fixed;imageAspect=0;image=data:image/svg+xml,PHN2ZyB4bWw6c3BhY2U9InByZXNlcnZlIiB2aWV3Qm94PSIwIDAgMTQ0IDMyMS45IiBoZWlnaHQ9IjMyMS45cHgiIHdpZHRoPSIxNDRweCIgeT0iMHB4IiB4PSIwcHgiIHhtbG5zOnhsaW5rPSJodHRwOi8vd3d3LnczLm9yZy8xOTk5L3hsaW5rIiB4bWxucz0iaHR0cDovL3d3dy53My5vcmcvMjAwMC9zdmciIGlkPSJMYXllcl8xIiB2ZXJzaW9uPSIxLjEiPiYjeGE7ICA8c3R5bGU+LmN1c3RvbS1jb2xvciB7IGZpbGw6IHJnYigyNTUsIDAsIDApOyB9IDwvc3R5bGU+JiN4YTsgIDxwYXRoIGQ9Ik0xMzUuMTc2LDE4Mi4wMzhsLTEyLjI3LTI5Ljg4Yy0yLjA3My03Ljc1OCwwLjE0OC01LjkwNC0wLjM0NC0xMS4wMDhjLTIuNDQ4LTUuMTQ0LTEwLjIxMS0yOS4xNjktMTQuMTg4LTI5LjE2OVY5Ny41ODImI3hBOyAgICBjMC0xMy45MTgtMy4yMjQtMjUuMi03LjItMjUuMmMtNS45NjQsMC0xMS4xMTItOS4yMTYtMTEuMTEyLTE3LjE2OWMyLjc1LTAuMTg4LDYuMDgzLDEuMDg1LDcuMTQ2LTAuNDc5JiN4QTsgICAgYzAuNTgtMC42LDEuMzM1LTIuMzE0LDEuNS0zLjQxN2MwLjczNC00Ljg5NywyLjE3My0xMS41OTMsMC45NjEtMTUuOTU2bDMuMTgxLTAuMzc3YzAsMCw0LjI1LTE5LjU4My0xMy4xMjUtMjIuMjA4JiN4QTsgICAgQzYzLjA4NCw4Ljc1LDY0LjE2NywzOS41NjcsNjQuMTY3LDM5LjU2N2wzLjI2NS0wLjM4N2MtMC4wMiwwLjI4OS0wLjAzMiwwLjU5MS0wLjAyNywwLjkyMWMwLjE5OCwxLjE3MiwwLjUzNiwxLjk3MiwxLjAwOCwyLjM4JiN4QTsgICAgYzAuMDY1LDAuMTAzLDAuMTU4LDAuMjExLDAuMjczLDAuMzE5YzAuNTI3LDAuNDk0LDEuNDA0LDAuODc1LDEuOTU4LDAuODUxYzMuMjA1LDAuODY5LDUuNDA0LDMuODExLDUuMzMsNy4xMzEmI3hBOyAgICBjLTEuMjU2LDMuNjkzLTMuNzgsNi40MDItNi44NCw3LjM0Yy0wLjY0NCwwLjkzNS0yLjAwMSwxLjk2OC0zLjkwMSwyLjk2N2MtMy41NDcsMS44NjctNy41MDQsMy4xNDEtMTEuNDksMy42MDUmI3hBOyAgICBjLTIuNDYsMC4yODctNC45ODUsMC4zNi02Ljg5MywxLjc1OFYzNy4xNWgtMS4zMjh2MzAuNjYyYy0wLjA3LDAuMDk5LTAuMTQ0LDAuMTkzLTAuMjEsMC4zYy0zLjAyMyw0LjgwMi02LjU0NSw5LjMwMi05LjM5NiwxNC4yMSYjeEE7ICAgIGMtMi43OTksNC44MTctNS4wMTcsOS45NjUtNi43NDIsMTUuMjU5aC0xNC40Yy0zLjk3NywwLTcuMiwzLjIyNC03LjIsNy4yYzAsNS45NjQsMS42MTIsMTAuOCwzLjYsMTAuOCYjeEE7ICAgIGMwLjA5LTAuNDUsMC42MDEsNC4zNTUsMC41MjQsNy4zMzhzLTAuMTI1LDIuNDgzLTAuNTI0LDMuNDYyYzAsNy45NTMsNi40NDcsMTQuNCwxNC40LDE0LjR2MTQuMzk5YzAsNS45NjUsNi40NDcsMTAuOCwxNC40LDEwLjgmI3hBOyAgICBjMTIuNDYyLTAuMDgxLDguODE3LTAuMjQ4LDEwLjY2LDE0LjI1YzEuNjM1LDEyLjQwMiw0LjA2MSwyNC4yMjQsNy4wNSwzNC4zNTFjLTIuMDg2LDAuMjAzLTIuMjc5LDE3LjI4Mi0wLjQzLDM4LjE2JiN4QTsgICAgYzIuOTk1LDQ0Ljc0Mi03LjY5Miw1NC4wMzMtMy43NjUsNTQuNDgyTDk5LDMxMy40YzItMyw0LTgsMC0xMGMtMi4zMzMtMC4wODMtMy0xLTUuMzIzLTEuMjY3Yy0wLjUxNy0wLjE2Mi0xLjA0OS0wLjM0LTEuNTgzLTAuNTI1JiN4QTsgICAgYy0yLjAzLTAuNzA3LTQuMDc0LTEuNTMzLTUuMzg5LTIuMTE2bC00LjgzNS03LjUyN2MtMC4wNzgtMi43NDIsMC43MS01LjQ5OSwxLjMwNS03LjE4M2MwLjg2Mi02LjA2LDEuNzc2LTEyLjAxNSwyLjc0LTE3Ljg2JiN4QTsgICAgYzEuMjc3LTcuNzQ4LDAuNDYtMTQuNjg4LDMuMTc5LTIzLjU5NmMxLjA1Mi0zLjQ0NiwyLjI5MS02LjUxOSwyLjkxOC0xMC4wNDhjMC43ODMtNC40MTIsMS40MzctOC44NDcsMS45NjMtMTMuMjk3JiN4QTsgICAgYzIuODY3LTUuMDY4LDQuMzI5LTE1LjMwNywzLjYwMS0yNS4xOTljMy4zLTQuNjMyLDQuMjU5LTguODQ1LDIuNTQ2LTIyLjM4NEw5OS42NjcsMTU5LjljMS40MTQtMi45ODgsMi42OTgtNS4zMDEsMy44NjctNy4wODEmI3hBOyAgICBsNy42MS01LjAwNWMxLjQsMC42MzEsMi4zODIsMi4xMzYsMy4xMDUsMi44OThjMS4wMzMsMC45NTUsMi42NTEsMy4xNDYsNC4yMTksNC41MzJsMTMuOTA2LDMwLjQwNWwzLjkxNy0yLjEyNXYtMS4yMDgmI3hBOyAgICBMMTM1LjE3NiwxODIuMDM4eiIgY2xhc3M9ImN1c3RvbS1jb2xvciIvPiYjeGE7PC9zdmc+;imageBackground=none;rounded=1;" vertex="1" parent="12">
                    <mxGeometry x="150.27000000000004" y="28" width="50.09" height="112" as="geometry"/>
                </mxCell>
                <mxCell id="17" value="" style="shape=image;editableCssRules=.*;verticalLabelPosition=bottom;labelBackgroundColor=default;verticalAlign=top;aspect=fixed;imageAspect=0;image=data:image/svg+xml,PHN2ZyB4bWw6c3BhY2U9InByZXNlcnZlIiB2aWV3Qm94PSIwIDAgMTQ0IDMyMS45IiBoZWlnaHQ9IjMyMS45cHgiIHdpZHRoPSIxNDRweCIgeT0iMHB4IiB4PSIwcHgiIHhtbG5zOnhsaW5rPSJodHRwOi8vd3d3LnczLm9yZy8xOTk5L3hsaW5rIiB4bWxucz0iaHR0cDovL3d3dy53My5vcmcvMjAwMC9zdmciIGlkPSJMYXllcl8xIiB2ZXJzaW9uPSIxLjEiPiYjeGE7ICA8c3R5bGU+LmN1c3RvbS1jb2xvciB7IGZpbGw6IHJnYigwLCAwLCAyNTUpOyB9IDwvc3R5bGU+JiN4YTsgIDxwYXRoIGQ9Ik0xMzUuMTc2LDE4Mi4wMzhsLTEyLjI3LTI5Ljg4Yy0yLjA3My03Ljc1OCwwLjE0OC01LjkwNC0wLjM0NC0xMS4wMDhjLTIuNDQ4LTUuMTQ0LTEwLjIxMS0yOS4xNjktMTQuMTg4LTI5LjE2OVY5Ny41ODImI3hBOyAgICBjMC0xMy45MTgtMy4yMjQtMjUuMi03LjItMjUuMmMtNS45NjQsMC0xMS4xMTItOS4yMTYtMTEuMTEyLTE3LjE2OWMyLjc1LTAuMTg4LDYuMDgzLDEuMDg1LDcuMTQ2LTAuNDc5JiN4QTsgICAgYzAuNTgtMC42LDEuMzM1LTIuMzE0LDEuNS0zLjQxN2MwLjczNC00Ljg5NywyLjE3My0xMS41OTMsMC45NjEtMTUuOTU2bDMuMTgxLTAuMzc3YzAsMCw0LjI1LTE5LjU4My0xMy4xMjUtMjIuMjA4JiN4QTsgICAgQzYzLjA4NCw4Ljc1LDY0LjE2NywzOS41NjcsNjQuMTY3LDM5LjU2N2wzLjI2NS0wLjM4N2MtMC4wMiwwLjI4OS0wLjAzMiwwLjU5MS0wLjAyNywwLjkyMWMwLjE5OCwxLjE3MiwwLjUzNiwxLjk3MiwxLjAwOCwyLjM4JiN4QTsgICAgYzAuMDY1LDAuMTAzLDAuMTU4LDAuMjExLDAuMjczLDAuMzE5YzAuNTI3LDAuNDk0LDEuNDA0LDAuODc1LDEuOTU4LDAuODUxYzMuMjA1LDAuODY5LDUuNDA0LDMuODExLDUuMzMsNy4xMzEmI3hBOyAgICBjLTEuMjU2LDMuNjkzLTMuNzgsNi40MDItNi44NCw3LjM0Yy0wLjY0NCwwLjkzNS0yLjAwMSwxLjk2OC0zLjkwMSwyLjk2N2MtMy41NDcsMS44NjctNy41MDQsMy4xNDEtMTEuNDksMy42MDUmI3hBOyAgICBjLTIuNDYsMC4yODctNC45ODUsMC4zNi02Ljg5MywxLjc1OFYzNy4xNWgtMS4zMjh2MzAuNjYyYy0wLjA3LDAuMDk5LTAuMTQ0LDAuMTkzLTAuMjEsMC4zYy0zLjAyMyw0LjgwMi02LjU0NSw5LjMwMi05LjM5NiwxNC4yMSYjeEE7ICAgIGMtMi43OTksNC44MTctNS4wMTcsOS45NjUtNi43NDIsMTUuMjU5aC0xNC40Yy0zLjk3NywwLTcuMiwzLjIyNC03LjIsNy4yYzAsNS45NjQsMS42MTIsMTAuOCwzLjYsMTAuOCYjeEE7ICAgIGMwLjA5LTAuNDUsMC42MDEsNC4zNTUsMC41MjQsNy4zMzhzLTAuMTI1LDIuNDgzLTAuNTI0LDMuNDYyYzAsNy45NTMsNi40NDcsMTQuNCwxNC40LDE0LjR2MTQuMzk5YzAsNS45NjUsNi40NDcsMTAuOCwxNC40LDEwLjgmI3hBOyAgICBjMTIuNDYyLTAuMDgxLDguODE3LTAuMjQ4LDEwLjY2LDE0LjI1YzEuNjM1LDEyLjQwMiw0LjA2MSwyNC4yMjQsNy4wNSwzNC4zNTFjLTIuMDg2LDAuMjAzLTIuMjc5LDE3LjI4Mi0wLjQzLDM4LjE2JiN4QTsgICAgYzIuOTk1LDQ0Ljc0Mi03LjY5Miw1NC4wMzMtMy43NjUsNTQuNDgyTDk5LDMxMy40YzItMyw0LTgsMC0xMGMtMi4zMzMtMC4wODMtMy0xLTUuMzIzLTEuMjY3Yy0wLjUxNy0wLjE2Mi0xLjA0OS0wLjM0LTEuNTgzLTAuNTI1JiN4QTsgICAgYy0yLjAzLTAuNzA3LTQuMDc0LTEuNTMzLTUuMzg5LTIuMTE2bC00LjgzNS03LjUyN2MtMC4wNzgtMi43NDIsMC43MS01LjQ5OSwxLjMwNS03LjE4M2MwLjg2Mi02LjA2LDEuNzc2LTEyLjAxNSwyLjc0LTE3Ljg2JiN4QTsgICAgYzEuMjc3LTcuNzQ4LDAuNDYtMTQuNjg4LDMuMTc5LTIzLjU5NmMxLjA1Mi0zLjQ0NiwyLjI5MS02LjUxOSwyLjkxOC0xMC4wNDhjMC43ODMtNC40MTIsMS40MzctOC44NDcsMS45NjMtMTMuMjk3JiN4QTsgICAgYzIuODY3LTUuMDY4LDQuMzI5LTE1LjMwNywzLjYwMS0yNS4xOTljMy4zLTQuNjMyLDQuMjU5LTguODQ1LDIuNTQ2LTIyLjM4NEw5OS42NjcsMTU5LjljMS40MTQtMi45ODgsMi42OTgtNS4zMDEsMy44NjctNy4wODEmI3hBOyAgICBsNy42MS01LjAwNWMxLjQsMC42MzEsMi4zODIsMi4xMzYsMy4xMDUsMi44OThjMS4wMzMsMC45NTUsMi42NTEsMy4xNDYsNC4yMTksNC41MzJsMTMuOTA2LDMwLjQwNWwzLjkxNy0yLjEyNXYtMS4yMDgmI3hBOyAgICBMMTM1LjE3NiwxODIuMDM4eiIgY2xhc3M9ImN1c3RvbS1jb2xvciIvPiYjeGE7PC9zdmc+;imageBackground=none;rounded=1;" vertex="1" parent="12">
                    <mxGeometry x="200.36" y="28" width="50.09" height="112" as="geometry"/>
                </mxCell>
                <mxCell id="18" value="" style="shape=image;editableCssRules=.*;verticalLabelPosition=bottom;labelBackgroundColor=default;verticalAlign=top;aspect=fixed;imageAspect=0;image=data:image/svg+xml,PHN2ZyB4bWw6c3BhY2U9InByZXNlcnZlIiB2aWV3Qm94PSIwIDAgMTQ0IDMyMS45IiBoZWlnaHQ9IjMyMS45cHgiIHdpZHRoPSIxNDRweCIgeT0iMHB4IiB4PSIwcHgiIHhtbG5zOnhsaW5rPSJodHRwOi8vd3d3LnczLm9yZy8xOTk5L3hsaW5rIiB4bWxucz0iaHR0cDovL3d3dy53My5vcmcvMjAwMC9zdmciIGlkPSJMYXllcl8xIiB2ZXJzaW9uPSIxLjEiPiYjeGE7ICA8c3R5bGU+LmN1c3RvbS1jb2xvciB7IGZpbGw6IHJnYigwLCAwLCAyNTUpOyB9IDwvc3R5bGU+JiN4YTsgIDxwYXRoIGQ9Ik0xMzUuMTc2LDE4Mi4wMzhsLTEyLjI3LTI5Ljg4Yy0yLjA3My03Ljc1OCwwLjE0OC01LjkwNC0wLjM0NC0xMS4wMDhjLTIuNDQ4LTUuMTQ0LTEwLjIxMS0yOS4xNjktMTQuMTg4LTI5LjE2OVY5Ny41ODImI3hBOyAgICBjMC0xMy45MTgtMy4yMjQtMjUuMi03LjItMjUuMmMtNS45NjQsMC0xMS4xMTItOS4yMTYtMTEuMTEyLTE3LjE2OWMyLjc1LTAuMTg4LDYuMDgzLDEuMDg1LDcuMTQ2LTAuNDc5JiN4QTsgICAgYzAuNTgtMC42LDEuMzM1LTIuMzE0LDEuNS0zLjQxN2MwLjczNC00Ljg5NywyLjE3My0xMS41OTMsMC45NjEtMTUuOTU2bDMuMTgxLTAuMzc3YzAsMCw0LjI1LTE5LjU4My0xMy4xMjUtMjIuMjA4JiN4QTsgICAgQzYzLjA4NCw4Ljc1LDY0LjE2NywzOS41NjcsNjQuMTY3LDM5LjU2N2wzLjI2NS0wLjM4N2MtMC4wMiwwLjI4OS0wLjAzMiwwLjU5MS0wLjAyNywwLjkyMWMwLjE5OCwxLjE3MiwwLjUzNiwxLjk3MiwxLjAwOCwyLjM4JiN4QTsgICAgYzAuMDY1LDAuMTAzLDAuMTU4LDAuMjExLDAuMjczLDAuMzE5YzAuNTI3LDAuNDk0LDEuNDA0LDAuODc1LDEuOTU4LDAuODUxYzMuMjA1LDAuODY5LDUuNDA0LDMuODExLDUuMzMsNy4xMzEmI3hBOyAgICBjLTEuMjU2LDMuNjkzLTMuNzgsNi40MDItNi44NCw3LjM0Yy0wLjY0NCwwLjkzNS0yLjAwMSwxLjk2OC0zLjkwMSwyLjk2N2MtMy41NDcsMS44NjctNy41MDQsMy4xNDEtMTEuNDksMy42MDUmI3hBOyAgICBjLTIuNDYsMC4yODctNC45ODUsMC4zNi02Ljg5MywxLjc1OFYzNy4xNWgtMS4zMjh2MzAuNjYyYy0wLjA3LDAuMDk5LTAuMTQ0LDAuMTkzLTAuMjEsMC4zYy0zLjAyMyw0LjgwMi02LjU0NSw5LjMwMi05LjM5NiwxNC4yMSYjeEE7ICAgIGMtMi43OTksNC44MTctNS4wMTcsOS45NjUtNi43NDIsMTUuMjU5aC0xNC40Yy0zLjk3NywwLTcuMiwzLjIyNC03LjIsNy4yYzAsNS45NjQsMS42MTIsMTAuOCwzLjYsMTAuOCYjeEE7ICAgIGMwLjA5LTAuNDUsMC42MDEsNC4zNTUsMC41MjQsNy4zMzhzLTAuMTI1LDIuNDgzLTAuNTI0LDMuNDYyYzAsNy45NTMsNi40NDcsMTQuNCwxNC40LDE0LjR2MTQuMzk5YzAsNS45NjUsNi40NDcsMTAuOCwxNC40LDEwLjgmI3hBOyAgICBjMTIuNDYyLTAuMDgxLDguODE3LTAuMjQ4LDEwLjY2LDE0LjI1YzEuNjM1LDEyLjQwMiw0LjA2MSwyNC4yMjQsNy4wNSwzNC4zNTFjLTIuMDg2LDAuMjAzLTIuMjc5LDE3LjI4Mi0wLjQzLDM4LjE2JiN4QTsgICAgYzIuOTk1LDQ0Ljc0Mi03LjY5Miw1NC4wMzMtMy43NjUsNTQuNDgyTDk5LDMxMy40YzItMyw0LTgsMC0xMGMtMi4zMzMtMC4wODMtMy0xLTUuMzIzLTEuMjY3Yy0wLjUxNy0wLjE2Mi0xLjA0OS0wLjM0LTEuNTgzLTAuNTI1JiN4QTsgICAgYy0yLjAzLTAuNzA3LTQuMDc0LTEuNTMzLTUuMzg5LTIuMTE2bC00LjgzNS03LjUyN2MtMC4wNzgtMi43NDIsMC43MS01LjQ5OSwxLjMwNS03LjE4M2MwLjg2Mi02LjA2LDEuNzc2LTEyLjAxNSwyLjc0LTE3Ljg2JiN4QTsgICAgYzEuMjc3LTcuNzQ4LDAuNDYtMTQuNjg4LDMuMTc5LTIzLjU5NmMxLjA1Mi0zLjQ0NiwyLjI5MS02LjUxOSwyLjkxOC0xMC4wNDhjMC43ODMtNC40MTIsMS40MzctOC44NDcsMS45NjMtMTMuMjk3JiN4QTsgICAgYzIuODY3LTUuMDY4LDQuMzI5LTE1LjMwNywzLjYwMS0yNS4xOTljMy4zLTQuNjMyLDQuMjU5LTguODQ1LDIuNTQ2LTIyLjM4NEw5OS42NjcsMTU5LjljMS40MTQtMi45ODgsMi42OTgtNS4zMDEsMy44NjctNy4wODEmI3hBOyAgICBsNy42MS01LjAwNWMxLjQsMC42MzEsMi4zODIsMi4xMzYsMy4xMDUsMi44OThjMS4wMzMsMC45NTUsMi42NTEsMy4xNDYsNC4yMTksNC41MzJsMTMuOTA2LDMwLjQwNWwzLjkxNy0yLjEyNXYtMS4yMDgmI3hBOyAgICBMMTM1LjE3NiwxODIuMDM4eiIgY2xhc3M9ImN1c3RvbS1jb2xvciIvPiYjeGE7PC9zdmc+;imageBackground=none;rounded=1;" vertex="1" parent="12">
                    <mxGeometry x="250.45000000000005" y="28" width="50.09" height="112" as="geometry"/>
                </mxCell>
                <mxCell id="19" value="Infantry Squad" style="swimlane;whiteSpace=wrap;html=1;rounded=1;startSize=23;" vertex="1" parent="1">
                    <mxGeometry x="-500" y="160" width="310" height="140" as="geometry"/>
                </mxCell>
                <mxCell id="20" value="" style="shape=image;editableCssRules=.*;verticalLabelPosition=bottom;labelBackgroundColor=default;verticalAlign=top;aspect=fixed;imageAspect=0;image=data:image/svg+xml,PHN2ZyB4bWw6c3BhY2U9InByZXNlcnZlIiB2aWV3Qm94PSIwIDAgMTQ0IDMyMS45IiBoZWlnaHQ9IjMyMS45cHgiIHdpZHRoPSIxNDRweCIgeT0iMHB4IiB4PSIwcHgiIHhtbG5zOnhsaW5rPSJodHRwOi8vd3d3LnczLm9yZy8xOTk5L3hsaW5rIiB4bWxucz0iaHR0cDovL3d3dy53My5vcmcvMjAwMC9zdmciIGlkPSJMYXllcl8xIiB2ZXJzaW9uPSIxLjEiPiYjeGE7ICA8c3R5bGU+LmN1c3RvbS1jb2xvciB7IGZpbGw6IHJnYigyNTUsIDI1NSwgNTEpOyB9IDwvc3R5bGU+JiN4YTsgIDxwYXRoIGQ9Ik0xMzUuMTc2LDE4Mi4wMzhsLTEyLjI3LTI5Ljg4Yy0yLjA3My03Ljc1OCwwLjE0OC01LjkwNC0wLjM0NC0xMS4wMDhjLTIuNDQ4LTUuMTQ0LTEwLjIxMS0yOS4xNjktMTQuMTg4LTI5LjE2OVY5Ny41ODImI3hBOyAgICBjMC0xMy45MTgtMy4yMjQtMjUuMi03LjItMjUuMmMtNS45NjQsMC0xMS4xMTItOS4yMTYtMTEuMTEyLTE3LjE2OWMyLjc1LTAuMTg4LDYuMDgzLDEuMDg1LDcuMTQ2LTAuNDc5JiN4QTsgICAgYzAuNTgtMC42LDEuMzM1LTIuMzE0LDEuNS0zLjQxN2MwLjczNC00Ljg5NywyLjE3My0xMS41OTMsMC45NjEtMTUuOTU2bDMuMTgxLTAuMzc3YzAsMCw0LjI1LTE5LjU4My0xMy4xMjUtMjIuMjA4JiN4QTsgICAgQzYzLjA4NCw4Ljc1LDY0LjE2NywzOS41NjcsNjQuMTY3LDM5LjU2N2wzLjI2NS0wLjM4N2MtMC4wMiwwLjI4OS0wLjAzMiwwLjU5MS0wLjAyNywwLjkyMWMwLjE5OCwxLjE3MiwwLjUzNiwxLjk3MiwxLjAwOCwyLjM4JiN4QTsgICAgYzAuMDY1LDAuMTAzLDAuMTU4LDAuMjExLDAuMjczLDAuMzE5YzAuNTI3LDAuNDk0LDEuNDA0LDAuODc1LDEuOTU4LDAuODUxYzMuMjA1LDAuODY5LDUuNDA0LDMuODExLDUuMzMsNy4xMzEmI3hBOyAgICBjLTEuMjU2LDMuNjkzLTMuNzgsNi40MDItNi44NCw3LjM0Yy0wLjY0NCwwLjkzNS0yLjAwMSwxLjk2OC0zLjkwMSwyLjk2N2MtMy41NDcsMS44NjctNy41MDQsMy4xNDEtMTEuNDksMy42MDUmI3hBOyAgICBjLTIuNDYsMC4yODctNC45ODUsMC4zNi02Ljg5MywxLjc1OFYzNy4xNWgtMS4zMjh2MzAuNjYyYy0wLjA3LDAuMDk5LTAuMTQ0LDAuMTkzLTAuMjEsMC4zYy0zLjAyMyw0LjgwMi02LjU0NSw5LjMwMi05LjM5NiwxNC4yMSYjeEE7ICAgIGMtMi43OTksNC44MTctNS4wMTcsOS45NjUtNi43NDIsMTUuMjU5aC0xNC40Yy0zLjk3NywwLTcuMiwzLjIyNC03LjIsNy4yYzAsNS45NjQsMS42MTIsMTAuOCwzLjYsMTAuOCYjeEE7ICAgIGMwLjA5LTAuNDUsMC42MDEsNC4zNTUsMC41MjQsNy4zMzhzLTAuMTI1LDIuNDgzLTAuNTI0LDMuNDYyYzAsNy45NTMsNi40NDcsMTQuNCwxNC40LDE0LjR2MTQuMzk5YzAsNS45NjUsNi40NDcsMTAuOCwxNC40LDEwLjgmI3hBOyAgICBjMTIuNDYyLTAuMDgxLDguODE3LTAuMjQ4LDEwLjY2LDE0LjI1YzEuNjM1LDEyLjQwMiw0LjA2MSwyNC4yMjQsNy4wNSwzNC4zNTFjLTIuMDg2LDAuMjAzLTIuMjc5LDE3LjI4Mi0wLjQzLDM4LjE2JiN4QTsgICAgYzIuOTk1LDQ0Ljc0Mi03LjY5Miw1NC4wMzMtMy43NjUsNTQuNDgyTDk5LDMxMy40YzItMyw0LTgsMC0xMGMtMi4zMzMtMC4wODMtMy0xLTUuMzIzLTEuMjY3Yy0wLjUxNy0wLjE2Mi0xLjA0OS0wLjM0LTEuNTgzLTAuNTI1JiN4QTsgICAgYy0yLjAzLTAuNzA3LTQuMDc0LTEuNTMzLTUuMzg5LTIuMTE2bC00LjgzNS03LjUyN2MtMC4wNzgtMi43NDIsMC43MS01LjQ5OSwxLjMwNS03LjE4M2MwLjg2Mi02LjA2LDEuNzc2LTEyLjAxNSwyLjc0LTE3Ljg2JiN4QTsgICAgYzEuMjc3LTcuNzQ4LDAuNDYtMTQuNjg4LDMuMTc5LTIzLjU5NmMxLjA1Mi0zLjQ0NiwyLjI5MS02LjUxOSwyLjkxOC0xMC4wNDhjMC43ODMtNC40MTIsMS40MzctOC44NDcsMS45NjMtMTMuMjk3JiN4QTsgICAgYzIuODY3LTUuMDY4LDQuMzI5LTE1LjMwNywzLjYwMS0yNS4xOTljMy4zLTQuNjMyLDQuMjU5LTguODQ1LDIuNTQ2LTIyLjM4NEw5OS42NjcsMTU5LjljMS40MTQtMi45ODgsMi42OTgtNS4zMDEsMy44NjctNy4wODEmI3hBOyAgICBsNy42MS01LjAwNWMxLjQsMC42MzEsMi4zODIsMi4xMzYsMy4xMDUsMi44OThjMS4wMzMsMC45NTUsMi42NTEsMy4xNDYsNC4yMTksNC41MzJsMTMuOTA2LDMwLjQwNWwzLjkxNy0yLjEyNXYtMS4yMDgmI3hBOyAgICBMMTM1LjE3NiwxODIuMDM4eiIgY2xhc3M9ImN1c3RvbS1jb2xvciIvPiYjeGE7PC9zdmc+;imageBackground=none;rounded=1;" vertex="1" parent="19">
                    <mxGeometry y="28" width="50.09" height="112" as="geometry"/>
                </mxCell>
                <mxCell id="21" value="" style="shape=image;editableCssRules=.*;verticalLabelPosition=bottom;labelBackgroundColor=default;verticalAlign=top;aspect=fixed;imageAspect=0;image=data:image/svg+xml,PHN2ZyB4bWw6c3BhY2U9InByZXNlcnZlIiB2aWV3Qm94PSIwIDAgMTQ0IDMyMS45IiBoZWlnaHQ9IjMyMS45cHgiIHdpZHRoPSIxNDRweCIgeT0iMHB4IiB4PSIwcHgiIHhtbG5zOnhsaW5rPSJodHRwOi8vd3d3LnczLm9yZy8xOTk5L3hsaW5rIiB4bWxucz0iaHR0cDovL3d3dy53My5vcmcvMjAwMC9zdmciIGlkPSJMYXllcl8xIiB2ZXJzaW9uPSIxLjEiPiYjeGE7ICA8c3R5bGU+LmN1c3RvbS1jb2xvciB7IGZpbGw6IHJnYigyNTUsIDI1NSwgNTEpOyB9IDwvc3R5bGU+JiN4YTsgIDxwYXRoIGQ9Ik0xMzUuMTc2LDE4Mi4wMzhsLTEyLjI3LTI5Ljg4Yy0yLjA3My03Ljc1OCwwLjE0OC01LjkwNC0wLjM0NC0xMS4wMDhjLTIuNDQ4LTUuMTQ0LTEwLjIxMS0yOS4xNjktMTQuMTg4LTI5LjE2OVY5Ny41ODImI3hBOyAgICBjMC0xMy45MTgtMy4yMjQtMjUuMi03LjItMjUuMmMtNS45NjQsMC0xMS4xMTItOS4yMTYtMTEuMTEyLTE3LjE2OWMyLjc1LTAuMTg4LDYuMDgzLDEuMDg1LDcuMTQ2LTAuNDc5JiN4QTsgICAgYzAuNTgtMC42LDEuMzM1LTIuMzE0LDEuNS0zLjQxN2MwLjczNC00Ljg5NywyLjE3My0xMS41OTMsMC45NjEtMTUuOTU2bDMuMTgxLTAuMzc3YzAsMCw0LjI1LTE5LjU4My0xMy4xMjUtMjIuMjA4JiN4QTsgICAgQzYzLjA4NCw4Ljc1LDY0LjE2NywzOS41NjcsNjQuMTY3LDM5LjU2N2wzLjI2NS0wLjM4N2MtMC4wMiwwLjI4OS0wLjAzMiwwLjU5MS0wLjAyNywwLjkyMWMwLjE5OCwxLjE3MiwwLjUzNiwxLjk3MiwxLjAwOCwyLjM4JiN4QTsgICAgYzAuMDY1LDAuMTAzLDAuMTU4LDAuMjExLDAuMjczLDAuMzE5YzAuNTI3LDAuNDk0LDEuNDA0LDAuODc1LDEuOTU4LDAuODUxYzMuMjA1LDAuODY5LDUuNDA0LDMuODExLDUuMzMsNy4xMzEmI3hBOyAgICBjLTEuMjU2LDMuNjkzLTMuNzgsNi40MDItNi44NCw3LjM0Yy0wLjY0NCwwLjkzNS0yLjAwMSwxLjk2OC0zLjkwMSwyLjk2N2MtMy41NDcsMS44NjctNy41MDQsMy4xNDEtMTEuNDksMy42MDUmI3hBOyAgICBjLTIuNDYsMC4yODctNC45ODUsMC4zNi02Ljg5MywxLjc1OFYzNy4xNWgtMS4zMjh2MzAuNjYyYy0wLjA3LDAuMDk5LTAuMTQ0LDAuMTkzLTAuMjEsMC4zYy0zLjAyMyw0LjgwMi02LjU0NSw5LjMwMi05LjM5NiwxNC4yMSYjeEE7ICAgIGMtMi43OTksNC44MTctNS4wMTcsOS45NjUtNi43NDIsMTUuMjU5aC0xNC40Yy0zLjk3NywwLTcuMiwzLjIyNC03LjIsNy4yYzAsNS45NjQsMS42MTIsMTAuOCwzLjYsMTAuOCYjeEE7ICAgIGMwLjA5LTAuNDUsMC42MDEsNC4zNTUsMC41MjQsNy4zMzhzLTAuMTI1LDIuNDgzLTAuNTI0LDMuNDYyYzAsNy45NTMsNi40NDcsMTQuNCwxNC40LDE0LjR2MTQuMzk5YzAsNS45NjUsNi40NDcsMTAuOCwxNC40LDEwLjgmI3hBOyAgICBjMTIuNDYyLTAuMDgxLDguODE3LTAuMjQ4LDEwLjY2LDE0LjI1YzEuNjM1LDEyLjQwMiw0LjA2MSwyNC4yMjQsNy4wNSwzNC4zNTFjLTIuMDg2LDAuMjAzLTIuMjc5LDE3LjI4Mi0wLjQzLDM4LjE2JiN4QTsgICAgYzIuOTk1LDQ0Ljc0Mi03LjY5Miw1NC4wMzMtMy43NjUsNTQuNDgyTDk5LDMxMy40YzItMyw0LTgsMC0xMGMtMi4zMzMtMC4wODMtMy0xLTUuMzIzLTEuMjY3Yy0wLjUxNy0wLjE2Mi0xLjA0OS0wLjM0LTEuNTgzLTAuNTI1JiN4QTsgICAgYy0yLjAzLTAuNzA3LTQuMDc0LTEuNTMzLTUuMzg5LTIuMTE2bC00LjgzNS03LjUyN2MtMC4wNzgtMi43NDIsMC43MS01LjQ5OSwxLjMwNS03LjE4M2MwLjg2Mi02LjA2LDEuNzc2LTEyLjAxNSwyLjc0LTE3Ljg2JiN4QTsgICAgYzEuMjc3LTcuNzQ4LDAuNDYtMTQuNjg4LDMuMTc5LTIzLjU5NmMxLjA1Mi0zLjQ0NiwyLjI5MS02LjUxOSwyLjkxOC0xMC4wNDhjMC43ODMtNC40MTIsMS40MzctOC44NDcsMS45NjMtMTMuMjk3JiN4QTsgICAgYzIuODY3LTUuMDY4LDQuMzI5LTE1LjMwNywzLjYwMS0yNS4xOTljMy4zLTQuNjMyLDQuMjU5LTguODQ1LDIuNTQ2LTIyLjM4NEw5OS42NjcsMTU5LjljMS40MTQtMi45ODgsMi42OTgtNS4zMDEsMy44NjctNy4wODEmI3hBOyAgICBsNy42MS01LjAwNWMxLjQsMC42MzEsMi4zODIsMi4xMzYsMy4xMDUsMi44OThjMS4wMzMsMC45NTUsMi42NTEsMy4xNDYsNC4yMTksNC41MzJsMTMuOTA2LDMwLjQwNWwzLjkxNy0yLjEyNXYtMS4yMDgmI3hBOyAgICBMMTM1LjE3NiwxODIuMDM4eiIgY2xhc3M9ImN1c3RvbS1jb2xvciIvPiYjeGE7PC9zdmc+;imageBackground=none;rounded=1;" vertex="1" parent="19">
                    <mxGeometry x="50.090000000000025" y="28" width="50.09" height="112" as="geometry"/>
                </mxCell>
                <mxCell id="22" value="" style="shape=image;editableCssRules=.*;verticalLabelPosition=bottom;labelBackgroundColor=default;verticalAlign=top;aspect=fixed;imageAspect=0;image=data:image/svg+xml,PHN2ZyB4bWw6c3BhY2U9InByZXNlcnZlIiB2aWV3Qm94PSIwIDAgMTQ0IDMyMS45IiBoZWlnaHQ9IjMyMS45cHgiIHdpZHRoPSIxNDRweCIgeT0iMHB4IiB4PSIwcHgiIHhtbG5zOnhsaW5rPSJodHRwOi8vd3d3LnczLm9yZy8xOTk5L3hsaW5rIiB4bWxucz0iaHR0cDovL3d3dy53My5vcmcvMjAwMC9zdmciIGlkPSJMYXllcl8xIiB2ZXJzaW9uPSIxLjEiPiYjeGE7ICA8c3R5bGU+LmN1c3RvbS1jb2xvciB7IGZpbGw6IHJnYigyNTUsIDAsIDApOyB9IDwvc3R5bGU+JiN4YTsgIDxwYXRoIGQ9Ik0xMzUuMTc2LDE4Mi4wMzhsLTEyLjI3LTI5Ljg4Yy0yLjA3My03Ljc1OCwwLjE0OC01LjkwNC0wLjM0NC0xMS4wMDhjLTIuNDQ4LTUuMTQ0LTEwLjIxMS0yOS4xNjktMTQuMTg4LTI5LjE2OVY5Ny41ODImI3hBOyAgICBjMC0xMy45MTgtMy4yMjQtMjUuMi03LjItMjUuMmMtNS45NjQsMC0xMS4xMTItOS4yMTYtMTEuMTEyLTE3LjE2OWMyLjc1LTAuMTg4LDYuMDgzLDEuMDg1LDcuMTQ2LTAuNDc5JiN4QTsgICAgYzAuNTgtMC42LDEuMzM1LTIuMzE0LDEuNS0zLjQxN2MwLjczNC00Ljg5NywyLjE3My0xMS41OTMsMC45NjEtMTUuOTU2bDMuMTgxLTAuMzc3YzAsMCw0LjI1LTE5LjU4My0xMy4xMjUtMjIuMjA4JiN4QTsgICAgQzYzLjA4NCw4Ljc1LDY0LjE2NywzOS41NjcsNjQuMTY3LDM5LjU2N2wzLjI2NS0wLjM4N2MtMC4wMiwwLjI4OS0wLjAzMiwwLjU5MS0wLjAyNywwLjkyMWMwLjE5OCwxLjE3MiwwLjUzNiwxLjk3MiwxLjAwOCwyLjM4JiN4QTsgICAgYzAuMDY1LDAuMTAzLDAuMTU4LDAuMjExLDAuMjczLDAuMzE5YzAuNTI3LDAuNDk0LDEuNDA0LDAuODc1LDEuOTU4LDAuODUxYzMuMjA1LDAuODY5LDUuNDA0LDMuODExLDUuMzMsNy4xMzEmI3hBOyAgICBjLTEuMjU2LDMuNjkzLTMuNzgsNi40MDItNi44NCw3LjM0Yy0wLjY0NCwwLjkzNS0yLjAwMSwxLjk2OC0zLjkwMSwyLjk2N2MtMy41NDcsMS44NjctNy41MDQsMy4xNDEtMTEuNDksMy42MDUmI3hBOyAgICBjLTIuNDYsMC4yODctNC45ODUsMC4zNi02Ljg5MywxLjc1OFYzNy4xNWgtMS4zMjh2MzAuNjYyYy0wLjA3LDAuMDk5LTAuMTQ0LDAuMTkzLTAuMjEsMC4zYy0zLjAyMyw0LjgwMi02LjU0NSw5LjMwMi05LjM5NiwxNC4yMSYjeEE7ICAgIGMtMi43OTksNC44MTctNS4wMTcsOS45NjUtNi43NDIsMTUuMjU5aC0xNC40Yy0zLjk3NywwLTcuMiwzLjIyNC03LjIsNy4yYzAsNS45NjQsMS42MTIsMTAuOCwzLjYsMTAuOCYjeEE7ICAgIGMwLjA5LTAuNDUsMC42MDEsNC4zNTUsMC41MjQsNy4zMzhzLTAuMTI1LDIuNDgzLTAuNTI0LDMuNDYyYzAsNy45NTMsNi40NDcsMTQuNCwxNC40LDE0LjR2MTQuMzk5YzAsNS45NjUsNi40NDcsMTAuOCwxNC40LDEwLjgmI3hBOyAgICBjMTIuNDYyLTAuMDgxLDguODE3LTAuMjQ4LDEwLjY2LDE0LjI1YzEuNjM1LDEyLjQwMiw0LjA2MSwyNC4yMjQsNy4wNSwzNC4zNTFjLTIuMDg2LDAuMjAzLTIuMjc5LDE3LjI4Mi0wLjQzLDM4LjE2JiN4QTsgICAgYzIuOTk1LDQ0Ljc0Mi03LjY5Miw1NC4wMzMtMy43NjUsNTQuNDgyTDk5LDMxMy40YzItMyw0LTgsMC0xMGMtMi4zMzMtMC4wODMtMy0xLTUuMzIzLTEuMjY3Yy0wLjUxNy0wLjE2Mi0xLjA0OS0wLjM0LTEuNTgzLTAuNTI1JiN4QTsgICAgYy0yLjAzLTAuNzA3LTQuMDc0LTEuNTMzLTUuMzg5LTIuMTE2bC00LjgzNS03LjUyN2MtMC4wNzgtMi43NDIsMC43MS01LjQ5OSwxLjMwNS03LjE4M2MwLjg2Mi02LjA2LDEuNzc2LTEyLjAxNSwyLjc0LTE3Ljg2JiN4QTsgICAgYzEuMjc3LTcuNzQ4LDAuNDYtMTQuNjg4LDMuMTc5LTIzLjU5NmMxLjA1Mi0zLjQ0NiwyLjI5MS02LjUxOSwyLjkxOC0xMC4wNDhjMC43ODMtNC40MTIsMS40MzctOC44NDcsMS45NjMtMTMuMjk3JiN4QTsgICAgYzIuODY3LTUuMDY4LDQuMzI5LTE1LjMwNywzLjYwMS0yNS4xOTljMy4zLTQuNjMyLDQuMjU5LTguODQ1LDIuNTQ2LTIyLjM4NEw5OS42NjcsMTU5LjljMS40MTQtMi45ODgsMi42OTgtNS4zMDEsMy44NjctNy4wODEmI3hBOyAgICBsNy42MS01LjAwNWMxLjQsMC42MzEsMi4zODIsMi4xMzYsMy4xMDUsMi44OThjMS4wMzMsMC45NTUsMi42NTEsMy4xNDYsNC4yMTksNC41MzJsMTMuOTA2LDMwLjQwNWwzLjkxNy0yLjEyNXYtMS4yMDgmI3hBOyAgICBMMTM1LjE3NiwxODIuMDM4eiIgY2xhc3M9ImN1c3RvbS1jb2xvciIvPiYjeGE7PC9zdmc+;imageBackground=none;rounded=1;" vertex="1" parent="19">
                    <mxGeometry x="100.18000000000004" y="28" width="50.09" height="112" as="geometry"/>
                </mxCell>
                <mxCell id="23" value="" style="shape=image;editableCssRules=.*;verticalLabelPosition=bottom;labelBackgroundColor=default;verticalAlign=top;aspect=fixed;imageAspect=0;image=data:image/svg+xml,PHN2ZyB4bWw6c3BhY2U9InByZXNlcnZlIiB2aWV3Qm94PSIwIDAgMTQ0IDMyMS45IiBoZWlnaHQ9IjMyMS45cHgiIHdpZHRoPSIxNDRweCIgeT0iMHB4IiB4PSIwcHgiIHhtbG5zOnhsaW5rPSJodHRwOi8vd3d3LnczLm9yZy8xOTk5L3hsaW5rIiB4bWxucz0iaHR0cDovL3d3dy53My5vcmcvMjAwMC9zdmciIGlkPSJMYXllcl8xIiB2ZXJzaW9uPSIxLjEiPiYjeGE7ICA8c3R5bGU+LmN1c3RvbS1jb2xvciB7IGZpbGw6IHJnYigwLCAwLCAyNTUpOyB9IDwvc3R5bGU+JiN4YTsgIDxwYXRoIGQ9Ik0xMzUuMTc2LDE4Mi4wMzhsLTEyLjI3LTI5Ljg4Yy0yLjA3My03Ljc1OCwwLjE0OC01LjkwNC0wLjM0NC0xMS4wMDhjLTIuNDQ4LTUuMTQ0LTEwLjIxMS0yOS4xNjktMTQuMTg4LTI5LjE2OVY5Ny41ODImI3hBOyAgICBjMC0xMy45MTgtMy4yMjQtMjUuMi03LjItMjUuMmMtNS45NjQsMC0xMS4xMTItOS4yMTYtMTEuMTEyLTE3LjE2OWMyLjc1LTAuMTg4LDYuMDgzLDEuMDg1LDcuMTQ2LTAuNDc5JiN4QTsgICAgYzAuNTgtMC42LDEuMzM1LTIuMzE0LDEuNS0zLjQxN2MwLjczNC00Ljg5NywyLjE3My0xMS41OTMsMC45NjEtMTUuOTU2bDMuMTgxLTAuMzc3YzAsMCw0LjI1LTE5LjU4My0xMy4xMjUtMjIuMjA4JiN4QTsgICAgQzYzLjA4NCw4Ljc1LDY0LjE2NywzOS41NjcsNjQuMTY3LDM5LjU2N2wzLjI2NS0wLjM4N2MtMC4wMiwwLjI4OS0wLjAzMiwwLjU5MS0wLjAyNywwLjkyMWMwLjE5OCwxLjE3MiwwLjUzNiwxLjk3MiwxLjAwOCwyLjM4JiN4QTsgICAgYzAuMDY1LDAuMTAzLDAuMTU4LDAuMjExLDAuMjczLDAuMzE5YzAuNTI3LDAuNDk0LDEuNDA0LDAuODc1LDEuOTU4LDAuODUxYzMuMjA1LDAuODY5LDUuNDA0LDMuODExLDUuMzMsNy4xMzEmI3hBOyAgICBjLTEuMjU2LDMuNjkzLTMuNzgsNi40MDItNi44NCw3LjM0Yy0wLjY0NCwwLjkzNS0yLjAwMSwxLjk2OC0zLjkwMSwyLjk2N2MtMy41NDcsMS44NjctNy41MDQsMy4xNDEtMTEuNDksMy42MDUmI3hBOyAgICBjLTIuNDYsMC4yODctNC45ODUsMC4zNi02Ljg5MywxLjc1OFYzNy4xNWgtMS4zMjh2MzAuNjYyYy0wLjA3LDAuMDk5LTAuMTQ0LDAuMTkzLTAuMjEsMC4zYy0zLjAyMyw0LjgwMi02LjU0NSw5LjMwMi05LjM5NiwxNC4yMSYjeEE7ICAgIGMtMi43OTksNC44MTctNS4wMTcsOS45NjUtNi43NDIsMTUuMjU5aC0xNC40Yy0zLjk3NywwLTcuMiwzLjIyNC03LjIsNy4yYzAsNS45NjQsMS42MTIsMTAuOCwzLjYsMTAuOCYjeEE7ICAgIGMwLjA5LTAuNDUsMC42MDEsNC4zNTUsMC41MjQsNy4zMzhzLTAuMTI1LDIuNDgzLTAuNTI0LDMuNDYyYzAsNy45NTMsNi40NDcsMTQuNCwxNC40LDE0LjR2MTQuMzk5YzAsNS45NjUsNi40NDcsMTAuOCwxNC40LDEwLjgmI3hBOyAgICBjMTIuNDYyLTAuMDgxLDguODE3LTAuMjQ4LDEwLjY2LDE0LjI1YzEuNjM1LDEyLjQwMiw0LjA2MSwyNC4yMjQsNy4wNSwzNC4zNTFjLTIuMDg2LDAuMjAzLTIuMjc5LDE3LjI4Mi0wLjQzLDM4LjE2JiN4QTsgICAgYzIuOTk1LDQ0Ljc0Mi03LjY5Miw1NC4wMzMtMy43NjUsNTQuNDgyTDk5LDMxMy40YzItMyw0LTgsMC0xMGMtMi4zMzMtMC4wODMtMy0xLTUuMzIzLTEuMjY3Yy0wLjUxNy0wLjE2Mi0xLjA0OS0wLjM0LTEuNTgzLTAuNTI1JiN4QTsgICAgYy0yLjAzLTAuNzA3LTQuMDc0LTEuNTMzLTUuMzg5LTIuMTE2bC00LjgzNS03LjUyN2MtMC4wNzgtMi43NDIsMC43MS01LjQ5OSwxLjMwNS03LjE4M2MwLjg2Mi02LjA2LDEuNzc2LTEyLjAxNSwyLjc0LTE3Ljg2JiN4QTsgICAgYzEuMjc3LTcuNzQ4LDAuNDYtMTQuNjg4LDMuMTc5LTIzLjU5NmMxLjA1Mi0zLjQ0NiwyLjI5MS02LjUxOSwyLjkxOC0xMC4wNDhjMC43ODMtNC40MTIsMS40MzctOC44NDcsMS45NjMtMTMuMjk3JiN4QTsgICAgYzIuODY3LTUuMDY4LDQuMzI5LTE1LjMwNywzLjYwMS0yNS4xOTljMy4zLTQuNjMyLDQuMjU5LTguODQ1LDIuNTQ2LTIyLjM4NEw5OS42NjcsMTU5LjljMS40MTQtMi45ODgsMi42OTgtNS4zMDEsMy44NjctNy4wODEmI3hBOyAgICBsNy42MS01LjAwNWMxLjQsMC42MzEsMi4zODIsMi4xMzYsMy4xMDUsMi44OThjMS4wMzMsMC45NTUsMi42NTEsMy4xNDYsNC4yMTksNC41MzJsMTMuOTA2LDMwLjQwNWwzLjkxNy0yLjEyNXYtMS4yMDgmI3hBOyAgICBMMTM1LjE3NiwxODIuMDM4eiIgY2xhc3M9ImN1c3RvbS1jb2xvciIvPiYjeGE7PC9zdmc+;imageBackground=none;rounded=1;" vertex="1" parent="19">
                    <mxGeometry x="200.36" y="28" width="50.09" height="112" as="geometry"/>
                </mxCell>
                <mxCell id="24" value="" style="shape=image;editableCssRules=.*;verticalLabelPosition=bottom;labelBackgroundColor=default;verticalAlign=top;aspect=fixed;imageAspect=0;image=data:image/svg+xml,PHN2ZyB4bWw6c3BhY2U9InByZXNlcnZlIiB2aWV3Qm94PSIwIDAgMTQ0IDMyMS45IiBoZWlnaHQ9IjMyMS45cHgiIHdpZHRoPSIxNDRweCIgeT0iMHB4IiB4PSIwcHgiIHhtbG5zOnhsaW5rPSJodHRwOi8vd3d3LnczLm9yZy8xOTk5L3hsaW5rIiB4bWxucz0iaHR0cDovL3d3dy53My5vcmcvMjAwMC9zdmciIGlkPSJMYXllcl8xIiB2ZXJzaW9uPSIxLjEiPiYjeGE7ICA8c3R5bGU+LmN1c3RvbS1jb2xvciB7IGZpbGw6IHJnYigwLCAwLCAyNTUpOyB9IDwvc3R5bGU+JiN4YTsgIDxwYXRoIGQ9Ik0xMzUuMTc2LDE4Mi4wMzhsLTEyLjI3LTI5Ljg4Yy0yLjA3My03Ljc1OCwwLjE0OC01LjkwNC0wLjM0NC0xMS4wMDhjLTIuNDQ4LTUuMTQ0LTEwLjIxMS0yOS4xNjktMTQuMTg4LTI5LjE2OVY5Ny41ODImI3hBOyAgICBjMC0xMy45MTgtMy4yMjQtMjUuMi03LjItMjUuMmMtNS45NjQsMC0xMS4xMTItOS4yMTYtMTEuMTEyLTE3LjE2OWMyLjc1LTAuMTg4LDYuMDgzLDEuMDg1LDcuMTQ2LTAuNDc5JiN4QTsgICAgYzAuNTgtMC42LDEuMzM1LTIuMzE0LDEuNS0zLjQxN2MwLjczNC00Ljg5NywyLjE3My0xMS41OTMsMC45NjEtMTUuOTU2bDMuMTgxLTAuMzc3YzAsMCw0LjI1LTE5LjU4My0xMy4xMjUtMjIuMjA4JiN4QTsgICAgQzYzLjA4NCw4Ljc1LDY0LjE2NywzOS41NjcsNjQuMTY3LDM5LjU2N2wzLjI2NS0wLjM4N2MtMC4wMiwwLjI4OS0wLjAzMiwwLjU5MS0wLjAyNywwLjkyMWMwLjE5OCwxLjE3MiwwLjUzNiwxLjk3MiwxLjAwOCwyLjM4JiN4QTsgICAgYzAuMDY1LDAuMTAzLDAuMTU4LDAuMjExLDAuMjczLDAuMzE5YzAuNTI3LDAuNDk0LDEuNDA0LDAuODc1LDEuOTU4LDAuODUxYzMuMjA1LDAuODY5LDUuNDA0LDMuODExLDUuMzMsNy4xMzEmI3hBOyAgICBjLTEuMjU2LDMuNjkzLTMuNzgsNi40MDItNi44NCw3LjM0Yy0wLjY0NCwwLjkzNS0yLjAwMSwxLjk2OC0zLjkwMSwyLjk2N2MtMy41NDcsMS44NjctNy41MDQsMy4xNDEtMTEuNDksMy42MDUmI3hBOyAgICBjLTIuNDYsMC4yODctNC45ODUsMC4zNi02Ljg5MywxLjc1OFYzNy4xNWgtMS4zMjh2MzAuNjYyYy0wLjA3LDAuMDk5LTAuMTQ0LDAuMTkzLTAuMjEsMC4zYy0zLjAyMyw0LjgwMi02LjU0NSw5LjMwMi05LjM5NiwxNC4yMSYjeEE7ICAgIGMtMi43OTksNC44MTctNS4wMTcsOS45NjUtNi43NDIsMTUuMjU5aC0xNC40Yy0zLjk3NywwLTcuMiwzLjIyNC03LjIsNy4yYzAsNS45NjQsMS42MTIsMTAuOCwzLjYsMTAuOCYjeEE7ICAgIGMwLjA5LTAuNDUsMC42MDEsNC4zNTUsMC41MjQsNy4zMzhzLTAuMTI1LDIuNDgzLTAuNTI0LDMuNDYyYzAsNy45NTMsNi40NDcsMTQuNCwxNC40LDE0LjR2MTQuMzk5YzAsNS45NjUsNi40NDcsMTAuOCwxNC40LDEwLjgmI3hBOyAgICBjMTIuNDYyLTAuMDgxLDguODE3LTAuMjQ4LDEwLjY2LDE0LjI1YzEuNjM1LDEyLjQwMiw0LjA2MSwyNC4yMjQsNy4wNSwzNC4zNTFjLTIuMDg2LDAuMjAzLTIuMjc5LDE3LjI4Mi0wLjQzLDM4LjE2JiN4QTsgICAgYzIuOTk1LDQ0Ljc0Mi03LjY5Miw1NC4wMzMtMy43NjUsNTQuNDgyTDk5LDMxMy40YzItMyw0LTgsMC0xMGMtMi4zMzMtMC4wODMtMy0xLTUuMzIzLTEuMjY3Yy0wLjUxNy0wLjE2Mi0xLjA0OS0wLjM0LTEuNTgzLTAuNTI1JiN4QTsgICAgYy0yLjAzLTAuNzA3LTQuMDc0LTEuNTMzLTUuMzg5LTIuMTE2bC00LjgzNS03LjUyN2MtMC4wNzgtMi43NDIsMC43MS01LjQ5OSwxLjMwNS03LjE4M2MwLjg2Mi02LjA2LDEuNzc2LTEyLjAxNSwyLjc0LTE3Ljg2JiN4QTsgICAgYzEuMjc3LTcuNzQ4LDAuNDYtMTQuNjg4LDMuMTc5LTIzLjU5NmMxLjA1Mi0zLjQ0NiwyLjI5MS02LjUxOSwyLjkxOC0xMC4wNDhjMC43ODMtNC40MTIsMS40MzctOC44NDcsMS45NjMtMTMuMjk3JiN4QTsgICAgYzIuODY3LTUuMDY4LDQuMzI5LTE1LjMwNywzLjYwMS0yNS4xOTljMy4zLTQuNjMyLDQuMjU5LTguODQ1LDIuNTQ2LTIyLjM4NEw5OS42NjcsMTU5LjljMS40MTQtMi45ODgsMi42OTgtNS4zMDEsMy44NjctNy4wODEmI3hBOyAgICBsNy42MS01LjAwNWMxLjQsMC42MzEsMi4zODIsMi4xMzYsMy4xMDUsMi44OThjMS4wMzMsMC45NTUsMi42NTEsMy4xNDYsNC4yMTksNC41MzJsMTMuOTA2LDMwLjQwNWwzLjkxNy0yLjEyNXYtMS4yMDgmI3hBOyAgICBMMTM1LjE3NiwxODIuMDM4eiIgY2xhc3M9ImN1c3RvbS1jb2xvciIvPiYjeGE7PC9zdmc+;imageBackground=none;rounded=1;" vertex="1" parent="19">
                    <mxGeometry x="250.45000000000005" y="28" width="50.09" height="112" as="geometry"/>
                </mxCell>
                <mxCell id="37" value="" style="shape=image;editableCssRules=.*;verticalLabelPosition=bottom;labelBackgroundColor=default;verticalAlign=top;aspect=fixed;imageAspect=0;image=data:image/svg+xml,PHN2ZyB4bWw6c3BhY2U9InByZXNlcnZlIiB2aWV3Qm94PSIwIDAgMTQ0IDMyMS45IiBoZWlnaHQ9IjMyMS45cHgiIHdpZHRoPSIxNDRweCIgeT0iMHB4IiB4PSIwcHgiIHhtbG5zOnhsaW5rPSJodHRwOi8vd3d3LnczLm9yZy8xOTk5L3hsaW5rIiB4bWxucz0iaHR0cDovL3d3dy53My5vcmcvMjAwMC9zdmciIGlkPSJMYXllcl8xIiB2ZXJzaW9uPSIxLjEiPiYjeGE7ICA8c3R5bGU+LmN1c3RvbS1jb2xvciB7IGZpbGw6IHJnYigyNTUsIDAsIDApOyB9IDwvc3R5bGU+JiN4YTsgIDxwYXRoIGQ9Ik0xMzUuMTc2LDE4Mi4wMzhsLTEyLjI3LTI5Ljg4Yy0yLjA3My03Ljc1OCwwLjE0OC01LjkwNC0wLjM0NC0xMS4wMDhjLTIuNDQ4LTUuMTQ0LTEwLjIxMS0yOS4xNjktMTQuMTg4LTI5LjE2OVY5Ny41ODImI3hBOyAgICBjMC0xMy45MTgtMy4yMjQtMjUuMi03LjItMjUuMmMtNS45NjQsMC0xMS4xMTItOS4yMTYtMTEuMTEyLTE3LjE2OWMyLjc1LTAuMTg4LDYuMDgzLDEuMDg1LDcuMTQ2LTAuNDc5JiN4QTsgICAgYzAuNTgtMC42LDEuMzM1LTIuMzE0LDEuNS0zLjQxN2MwLjczNC00Ljg5NywyLjE3My0xMS41OTMsMC45NjEtMTUuOTU2bDMuMTgxLTAuMzc3YzAsMCw0LjI1LTE5LjU4My0xMy4xMjUtMjIuMjA4JiN4QTsgICAgQzYzLjA4NCw4Ljc1LDY0LjE2NywzOS41NjcsNjQuMTY3LDM5LjU2N2wzLjI2NS0wLjM4N2MtMC4wMiwwLjI4OS0wLjAzMiwwLjU5MS0wLjAyNywwLjkyMWMwLjE5OCwxLjE3MiwwLjUzNiwxLjk3MiwxLjAwOCwyLjM4JiN4QTsgICAgYzAuMDY1LDAuMTAzLDAuMTU4LDAuMjExLDAuMjczLDAuMzE5YzAuNTI3LDAuNDk0LDEuNDA0LDAuODc1LDEuOTU4LDAuODUxYzMuMjA1LDAuODY5LDUuNDA0LDMuODExLDUuMzMsNy4xMzEmI3hBOyAgICBjLTEuMjU2LDMuNjkzLTMuNzgsNi40MDItNi44NCw3LjM0Yy0wLjY0NCwwLjkzNS0yLjAwMSwxLjk2OC0zLjkwMSwyLjk2N2MtMy41NDcsMS44NjctNy41MDQsMy4xNDEtMTEuNDksMy42MDUmI3hBOyAgICBjLTIuNDYsMC4yODctNC45ODUsMC4zNi02Ljg5MywxLjc1OFYzNy4xNWgtMS4zMjh2MzAuNjYyYy0wLjA3LDAuMDk5LTAuMTQ0LDAuMTkzLTAuMjEsMC4zYy0zLjAyMyw0LjgwMi02LjU0NSw5LjMwMi05LjM5NiwxNC4yMSYjeEE7ICAgIGMtMi43OTksNC44MTctNS4wMTcsOS45NjUtNi43NDIsMTUuMjU5aC0xNC40Yy0zLjk3NywwLTcuMiwzLjIyNC03LjIsNy4yYzAsNS45NjQsMS42MTIsMTAuOCwzLjYsMTAuOCYjeEE7ICAgIGMwLjA5LTAuNDUsMC42MDEsNC4zNTUsMC41MjQsNy4zMzhzLTAuMTI1LDIuNDgzLTAuNTI0LDMuNDYyYzAsNy45NTMsNi40NDcsMTQuNCwxNC40LDE0LjR2MTQuMzk5YzAsNS45NjUsNi40NDcsMTAuOCwxNC40LDEwLjgmI3hBOyAgICBjMTIuNDYyLTAuMDgxLDguODE3LTAuMjQ4LDEwLjY2LDE0LjI1YzEuNjM1LDEyLjQwMiw0LjA2MSwyNC4yMjQsNy4wNSwzNC4zNTFjLTIuMDg2LDAuMjAzLTIuMjc5LDE3LjI4Mi0wLjQzLDM4LjE2JiN4QTsgICAgYzIuOTk1LDQ0Ljc0Mi03LjY5Miw1NC4wMzMtMy43NjUsNTQuNDgyTDk5LDMxMy40YzItMyw0LTgsMC0xMGMtMi4zMzMtMC4wODMtMy0xLTUuMzIzLTEuMjY3Yy0wLjUxNy0wLjE2Mi0xLjA0OS0wLjM0LTEuNTgzLTAuNTI1JiN4QTsgICAgYy0yLjAzLTAuNzA3LTQuMDc0LTEuNTMzLTUuMzg5LTIuMTE2bC00LjgzNS03LjUyN2MtMC4wNzgtMi43NDIsMC43MS01LjQ5OSwxLjMwNS03LjE4M2MwLjg2Mi02LjA2LDEuNzc2LTEyLjAxNSwyLjc0LTE3Ljg2JiN4QTsgICAgYzEuMjc3LTcuNzQ4LDAuNDYtMTQuNjg4LDMuMTc5LTIzLjU5NmMxLjA1Mi0zLjQ0NiwyLjI5MS02LjUxOSwyLjkxOC0xMC4wNDhjMC43ODMtNC40MTIsMS40MzctOC44NDcsMS45NjMtMTMuMjk3JiN4QTsgICAgYzIuODY3LTUuMDY4LDQuMzI5LTE1LjMwNywzLjYwMS0yNS4xOTljMy4zLTQuNjMyLDQuMjU5LTguODQ1LDIuNTQ2LTIyLjM4NEw5OS42NjcsMTU5LjljMS40MTQtMi45ODgsMi42OTgtNS4zMDEsMy44NjctNy4wODEmI3hBOyAgICBsNy42MS01LjAwNWMxLjQsMC42MzEsMi4zODIsMi4xMzYsMy4xMDUsMi44OThjMS4wMzMsMC45NTUsMi42NTEsMy4xNDYsNC4yMTksNC41MzJsMTMuOTA2LDMwLjQwNWwzLjkxNy0yLjEyNXYtMS4yMDgmI3hBOyAgICBMMTM1LjE3NiwxODIuMDM4eiIgY2xhc3M9ImN1c3RvbS1jb2xvciIvPiYjeGE7PC9zdmc+;imageBackground=none;rounded=1;" vertex="1" parent="19">
                    <mxGeometry x="150.27000000000004" y="28" width="50.09" height="112" as="geometry"/>
                </mxCell>
                <mxCell id="25" value="Infantry Squad" style="swimlane;whiteSpace=wrap;html=1;rounded=1;" vertex="1" parent="1">
                    <mxGeometry x="-500" y="310" width="310" height="140" as="geometry"/>
                </mxCell>
                <mxCell id="26" value="" style="shape=image;editableCssRules=.*;verticalLabelPosition=bottom;labelBackgroundColor=default;verticalAlign=top;aspect=fixed;imageAspect=0;image=data:image/svg+xml,PHN2ZyB4bWw6c3BhY2U9InByZXNlcnZlIiB2aWV3Qm94PSIwIDAgMTQ0IDMyMS45IiBoZWlnaHQ9IjMyMS45cHgiIHdpZHRoPSIxNDRweCIgeT0iMHB4IiB4PSIwcHgiIHhtbG5zOnhsaW5rPSJodHRwOi8vd3d3LnczLm9yZy8xOTk5L3hsaW5rIiB4bWxucz0iaHR0cDovL3d3dy53My5vcmcvMjAwMC9zdmciIGlkPSJMYXllcl8xIiB2ZXJzaW9uPSIxLjEiPiYjeGE7ICA8c3R5bGU+LmN1c3RvbS1jb2xvciB7IGZpbGw6IHJnYigyNTUsIDI1NSwgNTEpOyB9IDwvc3R5bGU+JiN4YTsgIDxwYXRoIGQ9Ik0xMzUuMTc2LDE4Mi4wMzhsLTEyLjI3LTI5Ljg4Yy0yLjA3My03Ljc1OCwwLjE0OC01LjkwNC0wLjM0NC0xMS4wMDhjLTIuNDQ4LTUuMTQ0LTEwLjIxMS0yOS4xNjktMTQuMTg4LTI5LjE2OVY5Ny41ODImI3hBOyAgICBjMC0xMy45MTgtMy4yMjQtMjUuMi03LjItMjUuMmMtNS45NjQsMC0xMS4xMTItOS4yMTYtMTEuMTEyLTE3LjE2OWMyLjc1LTAuMTg4LDYuMDgzLDEuMDg1LDcuMTQ2LTAuNDc5JiN4QTsgICAgYzAuNTgtMC42LDEuMzM1LTIuMzE0LDEuNS0zLjQxN2MwLjczNC00Ljg5NywyLjE3My0xMS41OTMsMC45NjEtMTUuOTU2bDMuMTgxLTAuMzc3YzAsMCw0LjI1LTE5LjU4My0xMy4xMjUtMjIuMjA4JiN4QTsgICAgQzYzLjA4NCw4Ljc1LDY0LjE2NywzOS41NjcsNjQuMTY3LDM5LjU2N2wzLjI2NS0wLjM4N2MtMC4wMiwwLjI4OS0wLjAzMiwwLjU5MS0wLjAyNywwLjkyMWMwLjE5OCwxLjE3MiwwLjUzNiwxLjk3MiwxLjAwOCwyLjM4JiN4QTsgICAgYzAuMDY1LDAuMTAzLDAuMTU4LDAuMjExLDAuMjczLDAuMzE5YzAuNTI3LDAuNDk0LDEuNDA0LDAuODc1LDEuOTU4LDAuODUxYzMuMjA1LDAuODY5LDUuNDA0LDMuODExLDUuMzMsNy4xMzEmI3hBOyAgICBjLTEuMjU2LDMuNjkzLTMuNzgsNi40MDItNi44NCw3LjM0Yy0wLjY0NCwwLjkzNS0yLjAwMSwxLjk2OC0zLjkwMSwyLjk2N2MtMy41NDcsMS44NjctNy41MDQsMy4xNDEtMTEuNDksMy42MDUmI3hBOyAgICBjLTIuNDYsMC4yODctNC45ODUsMC4zNi02Ljg5MywxLjc1OFYzNy4xNWgtMS4zMjh2MzAuNjYyYy0wLjA3LDAuMDk5LTAuMTQ0LDAuMTkzLTAuMjEsMC4zYy0zLjAyMyw0LjgwMi02LjU0NSw5LjMwMi05LjM5NiwxNC4yMSYjeEE7ICAgIGMtMi43OTksNC44MTctNS4wMTcsOS45NjUtNi43NDIsMTUuMjU5aC0xNC40Yy0zLjk3NywwLTcuMiwzLjIyNC03LjIsNy4yYzAsNS45NjQsMS42MTIsMTAuOCwzLjYsMTAuOCYjeEE7ICAgIGMwLjA5LTAuNDUsMC42MDEsNC4zNTUsMC41MjQsNy4zMzhzLTAuMTI1LDIuNDgzLTAuNTI0LDMuNDYyYzAsNy45NTMsNi40NDcsMTQuNCwxNC40LDE0LjR2MTQuMzk5YzAsNS45NjUsNi40NDcsMTAuOCwxNC40LDEwLjgmI3hBOyAgICBjMTIuNDYyLTAuMDgxLDguODE3LTAuMjQ4LDEwLjY2LDE0LjI1YzEuNjM1LDEyLjQwMiw0LjA2MSwyNC4yMjQsNy4wNSwzNC4zNTFjLTIuMDg2LDAuMjAzLTIuMjc5LDE3LjI4Mi0wLjQzLDM4LjE2JiN4QTsgICAgYzIuOTk1LDQ0Ljc0Mi03LjY5Miw1NC4wMzMtMy43NjUsNTQuNDgyTDk5LDMxMy40YzItMyw0LTgsMC0xMGMtMi4zMzMtMC4wODMtMy0xLTUuMzIzLTEuMjY3Yy0wLjUxNy0wLjE2Mi0xLjA0OS0wLjM0LTEuNTgzLTAuNTI1JiN4QTsgICAgYy0yLjAzLTAuNzA3LTQuMDc0LTEuNTMzLTUuMzg5LTIuMTE2bC00LjgzNS03LjUyN2MtMC4wNzgtMi43NDIsMC43MS01LjQ5OSwxLjMwNS03LjE4M2MwLjg2Mi02LjA2LDEuNzc2LTEyLjAxNSwyLjc0LTE3Ljg2JiN4QTsgICAgYzEuMjc3LTcuNzQ4LDAuNDYtMTQuNjg4LDMuMTc5LTIzLjU5NmMxLjA1Mi0zLjQ0NiwyLjI5MS02LjUxOSwyLjkxOC0xMC4wNDhjMC43ODMtNC40MTIsMS40MzctOC44NDcsMS45NjMtMTMuMjk3JiN4QTsgICAgYzIuODY3LTUuMDY4LDQuMzI5LTE1LjMwNywzLjYwMS0yNS4xOTljMy4zLTQuNjMyLDQuMjU5LTguODQ1LDIuNTQ2LTIyLjM4NEw5OS42NjcsMTU5LjljMS40MTQtMi45ODgsMi42OTgtNS4zMDEsMy44NjctNy4wODEmI3hBOyAgICBsNy42MS01LjAwNWMxLjQsMC42MzEsMi4zODIsMi4xMzYsMy4xMDUsMi44OThjMS4wMzMsMC45NTUsMi42NTEsMy4xNDYsNC4yMTksNC41MzJsMTMuOTA2LDMwLjQwNWwzLjkxNy0yLjEyNXYtMS4yMDgmI3hBOyAgICBMMTM1LjE3NiwxODIuMDM4eiIgY2xhc3M9ImN1c3RvbS1jb2xvciIvPiYjeGE7PC9zdmc+;imageBackground=none;rounded=1;" vertex="1" parent="25">
                    <mxGeometry y="28" width="50.09" height="112" as="geometry"/>
                </mxCell>
                <mxCell id="27" value="" style="shape=image;editableCssRules=.*;verticalLabelPosition=bottom;labelBackgroundColor=default;verticalAlign=top;aspect=fixed;imageAspect=0;image=data:image/svg+xml,PHN2ZyB4bWw6c3BhY2U9InByZXNlcnZlIiB2aWV3Qm94PSIwIDAgMTQ0IDMyMS45IiBoZWlnaHQ9IjMyMS45cHgiIHdpZHRoPSIxNDRweCIgeT0iMHB4IiB4PSIwcHgiIHhtbG5zOnhsaW5rPSJodHRwOi8vd3d3LnczLm9yZy8xOTk5L3hsaW5rIiB4bWxucz0iaHR0cDovL3d3dy53My5vcmcvMjAwMC9zdmciIGlkPSJMYXllcl8xIiB2ZXJzaW9uPSIxLjEiPiYjeGE7ICA8c3R5bGU+LmN1c3RvbS1jb2xvciB7IGZpbGw6IHJnYigyNTUsIDI1NSwgNTEpOyB9IDwvc3R5bGU+JiN4YTsgIDxwYXRoIGQ9Ik0xMzUuMTc2LDE4Mi4wMzhsLTEyLjI3LTI5Ljg4Yy0yLjA3My03Ljc1OCwwLjE0OC01LjkwNC0wLjM0NC0xMS4wMDhjLTIuNDQ4LTUuMTQ0LTEwLjIxMS0yOS4xNjktMTQuMTg4LTI5LjE2OVY5Ny41ODImI3hBOyAgICBjMC0xMy45MTgtMy4yMjQtMjUuMi03LjItMjUuMmMtNS45NjQsMC0xMS4xMTItOS4yMTYtMTEuMTEyLTE3LjE2OWMyLjc1LTAuMTg4LDYuMDgzLDEuMDg1LDcuMTQ2LTAuNDc5JiN4QTsgICAgYzAuNTgtMC42LDEuMzM1LTIuMzE0LDEuNS0zLjQxN2MwLjczNC00Ljg5NywyLjE3My0xMS41OTMsMC45NjEtMTUuOTU2bDMuMTgxLTAuMzc3YzAsMCw0LjI1LTE5LjU4My0xMy4xMjUtMjIuMjA4JiN4QTsgICAgQzYzLjA4NCw4Ljc1LDY0LjE2NywzOS41NjcsNjQuMTY3LDM5LjU2N2wzLjI2NS0wLjM4N2MtMC4wMiwwLjI4OS0wLjAzMiwwLjU5MS0wLjAyNywwLjkyMWMwLjE5OCwxLjE3MiwwLjUzNiwxLjk3MiwxLjAwOCwyLjM4JiN4QTsgICAgYzAuMDY1LDAuMTAzLDAuMTU4LDAuMjExLDAuMjczLDAuMzE5YzAuNTI3LDAuNDk0LDEuNDA0LDAuODc1LDEuOTU4LDAuODUxYzMuMjA1LDAuODY5LDUuNDA0LDMuODExLDUuMzMsNy4xMzEmI3hBOyAgICBjLTEuMjU2LDMuNjkzLTMuNzgsNi40MDItNi44NCw3LjM0Yy0wLjY0NCwwLjkzNS0yLjAwMSwxLjk2OC0zLjkwMSwyLjk2N2MtMy41NDcsMS44NjctNy41MDQsMy4xNDEtMTEuNDksMy42MDUmI3hBOyAgICBjLTIuNDYsMC4yODctNC45ODUsMC4zNi02Ljg5MywxLjc1OFYzNy4xNWgtMS4zMjh2MzAuNjYyYy0wLjA3LDAuMDk5LTAuMTQ0LDAuMTkzLTAuMjEsMC4zYy0zLjAyMyw0LjgwMi02LjU0NSw5LjMwMi05LjM5NiwxNC4yMSYjeEE7ICAgIGMtMi43OTksNC44MTctNS4wMTcsOS45NjUtNi43NDIsMTUuMjU5aC0xNC40Yy0zLjk3NywwLTcuMiwzLjIyNC03LjIsNy4yYzAsNS45NjQsMS42MTIsMTAuOCwzLjYsMTAuOCYjeEE7ICAgIGMwLjA5LTAuNDUsMC42MDEsNC4zNTUsMC41MjQsNy4zMzhzLTAuMTI1LDIuNDgzLTAuNTI0LDMuNDYyYzAsNy45NTMsNi40NDcsMTQuNCwxNC40LDE0LjR2MTQuMzk5YzAsNS45NjUsNi40NDcsMTAuOCwxNC40LDEwLjgmI3hBOyAgICBjMTIuNDYyLTAuMDgxLDguODE3LTAuMjQ4LDEwLjY2LDE0LjI1YzEuNjM1LDEyLjQwMiw0LjA2MSwyNC4yMjQsNy4wNSwzNC4zNTFjLTIuMDg2LDAuMjAzLTIuMjc5LDE3LjI4Mi0wLjQzLDM4LjE2JiN4QTsgICAgYzIuOTk1LDQ0Ljc0Mi03LjY5Miw1NC4wMzMtMy43NjUsNTQuNDgyTDk5LDMxMy40YzItMyw0LTgsMC0xMGMtMi4zMzMtMC4wODMtMy0xLTUuMzIzLTEuMjY3Yy0wLjUxNy0wLjE2Mi0xLjA0OS0wLjM0LTEuNTgzLTAuNTI1JiN4QTsgICAgYy0yLjAzLTAuNzA3LTQuMDc0LTEuNTMzLTUuMzg5LTIuMTE2bC00LjgzNS03LjUyN2MtMC4wNzgtMi43NDIsMC43MS01LjQ5OSwxLjMwNS03LjE4M2MwLjg2Mi02LjA2LDEuNzc2LTEyLjAxNSwyLjc0LTE3Ljg2JiN4QTsgICAgYzEuMjc3LTcuNzQ4LDAuNDYtMTQuNjg4LDMuMTc5LTIzLjU5NmMxLjA1Mi0zLjQ0NiwyLjI5MS02LjUxOSwyLjkxOC0xMC4wNDhjMC43ODMtNC40MTIsMS40MzctOC44NDcsMS45NjMtMTMuMjk3JiN4QTsgICAgYzIuODY3LTUuMDY4LDQuMzI5LTE1LjMwNywzLjYwMS0yNS4xOTljMy4zLTQuNjMyLDQuMjU5LTguODQ1LDIuNTQ2LTIyLjM4NEw5OS42NjcsMTU5LjljMS40MTQtMi45ODgsMi42OTgtNS4zMDEsMy44NjctNy4wODEmI3hBOyAgICBsNy42MS01LjAwNWMxLjQsMC42MzEsMi4zODIsMi4xMzYsMy4xMDUsMi44OThjMS4wMzMsMC45NTUsMi42NTEsMy4xNDYsNC4yMTksNC41MzJsMTMuOTA2LDMwLjQwNWwzLjkxNy0yLjEyNXYtMS4yMDgmI3hBOyAgICBMMTM1LjE3NiwxODIuMDM4eiIgY2xhc3M9ImN1c3RvbS1jb2xvciIvPiYjeGE7PC9zdmc+;imageBackground=none;rounded=1;" vertex="1" parent="25">
                    <mxGeometry x="50.090000000000025" y="28" width="50.09" height="112" as="geometry"/>
                </mxCell>
                <mxCell id="28" value="" style="shape=image;editableCssRules=.*;verticalLabelPosition=bottom;labelBackgroundColor=default;verticalAlign=top;aspect=fixed;imageAspect=0;image=data:image/svg+xml,PHN2ZyB4bWw6c3BhY2U9InByZXNlcnZlIiB2aWV3Qm94PSIwIDAgMTQ0IDMyMS45IiBoZWlnaHQ9IjMyMS45cHgiIHdpZHRoPSIxNDRweCIgeT0iMHB4IiB4PSIwcHgiIHhtbG5zOnhsaW5rPSJodHRwOi8vd3d3LnczLm9yZy8xOTk5L3hsaW5rIiB4bWxucz0iaHR0cDovL3d3dy53My5vcmcvMjAwMC9zdmciIGlkPSJMYXllcl8xIiB2ZXJzaW9uPSIxLjEiPiYjeGE7ICA8c3R5bGU+LmN1c3RvbS1jb2xvciB7IGZpbGw6IHJnYigyNTUsIDAsIDApOyB9IDwvc3R5bGU+JiN4YTsgIDxwYXRoIGQ9Ik0xMzUuMTc2LDE4Mi4wMzhsLTEyLjI3LTI5Ljg4Yy0yLjA3My03Ljc1OCwwLjE0OC01LjkwNC0wLjM0NC0xMS4wMDhjLTIuNDQ4LTUuMTQ0LTEwLjIxMS0yOS4xNjktMTQuMTg4LTI5LjE2OVY5Ny41ODImI3hBOyAgICBjMC0xMy45MTgtMy4yMjQtMjUuMi03LjItMjUuMmMtNS45NjQsMC0xMS4xMTItOS4yMTYtMTEuMTEyLTE3LjE2OWMyLjc1LTAuMTg4LDYuMDgzLDEuMDg1LDcuMTQ2LTAuNDc5JiN4QTsgICAgYzAuNTgtMC42LDEuMzM1LTIuMzE0LDEuNS0zLjQxN2MwLjczNC00Ljg5NywyLjE3My0xMS41OTMsMC45NjEtMTUuOTU2bDMuMTgxLTAuMzc3YzAsMCw0LjI1LTE5LjU4My0xMy4xMjUtMjIuMjA4JiN4QTsgICAgQzYzLjA4NCw4Ljc1LDY0LjE2NywzOS41NjcsNjQuMTY3LDM5LjU2N2wzLjI2NS0wLjM4N2MtMC4wMiwwLjI4OS0wLjAzMiwwLjU5MS0wLjAyNywwLjkyMWMwLjE5OCwxLjE3MiwwLjUzNiwxLjk3MiwxLjAwOCwyLjM4JiN4QTsgICAgYzAuMDY1LDAuMTAzLDAuMTU4LDAuMjExLDAuMjczLDAuMzE5YzAuNTI3LDAuNDk0LDEuNDA0LDAuODc1LDEuOTU4LDAuODUxYzMuMjA1LDAuODY5LDUuNDA0LDMuODExLDUuMzMsNy4xMzEmI3hBOyAgICBjLTEuMjU2LDMuNjkzLTMuNzgsNi40MDItNi44NCw3LjM0Yy0wLjY0NCwwLjkzNS0yLjAwMSwxLjk2OC0zLjkwMSwyLjk2N2MtMy41NDcsMS44NjctNy41MDQsMy4xNDEtMTEuNDksMy42MDUmI3hBOyAgICBjLTIuNDYsMC4yODctNC45ODUsMC4zNi02Ljg5MywxLjc1OFYzNy4xNWgtMS4zMjh2MzAuNjYyYy0wLjA3LDAuMDk5LTAuMTQ0LDAuMTkzLTAuMjEsMC4zYy0zLjAyMyw0LjgwMi02LjU0NSw5LjMwMi05LjM5NiwxNC4yMSYjeEE7ICAgIGMtMi43OTksNC44MTctNS4wMTcsOS45NjUtNi43NDIsMTUuMjU5aC0xNC40Yy0zLjk3NywwLTcuMiwzLjIyNC03LjIsNy4yYzAsNS45NjQsMS42MTIsMTAuOCwzLjYsMTAuOCYjeEE7ICAgIGMwLjA5LTAuNDUsMC42MDEsNC4zNTUsMC41MjQsNy4zMzhzLTAuMTI1LDIuNDgzLTAuNTI0LDMuNDYyYzAsNy45NTMsNi40NDcsMTQuNCwxNC40LDE0LjR2MTQuMzk5YzAsNS45NjUsNi40NDcsMTAuOCwxNC40LDEwLjgmI3hBOyAgICBjMTIuNDYyLTAuMDgxLDguODE3LTAuMjQ4LDEwLjY2LDE0LjI1YzEuNjM1LDEyLjQwMiw0LjA2MSwyNC4yMjQsNy4wNSwzNC4zNTFjLTIuMDg2LDAuMjAzLTIuMjc5LDE3LjI4Mi0wLjQzLDM4LjE2JiN4QTsgICAgYzIuOTk1LDQ0Ljc0Mi03LjY5Miw1NC4wMzMtMy43NjUsNTQuNDgyTDk5LDMxMy40YzItMyw0LTgsMC0xMGMtMi4zMzMtMC4wODMtMy0xLTUuMzIzLTEuMjY3Yy0wLjUxNy0wLjE2Mi0xLjA0OS0wLjM0LTEuNTgzLTAuNTI1JiN4QTsgICAgYy0yLjAzLTAuNzA3LTQuMDc0LTEuNTMzLTUuMzg5LTIuMTE2bC00LjgzNS03LjUyN2MtMC4wNzgtMi43NDIsMC43MS01LjQ5OSwxLjMwNS03LjE4M2MwLjg2Mi02LjA2LDEuNzc2LTEyLjAxNSwyLjc0LTE3Ljg2JiN4QTsgICAgYzEuMjc3LTcuNzQ4LDAuNDYtMTQuNjg4LDMuMTc5LTIzLjU5NmMxLjA1Mi0zLjQ0NiwyLjI5MS02LjUxOSwyLjkxOC0xMC4wNDhjMC43ODMtNC40MTIsMS40MzctOC44NDcsMS45NjMtMTMuMjk3JiN4QTsgICAgYzIuODY3LTUuMDY4LDQuMzI5LTE1LjMwNywzLjYwMS0yNS4xOTljMy4zLTQuNjMyLDQuMjU5LTguODQ1LDIuNTQ2LTIyLjM4NEw5OS42NjcsMTU5LjljMS40MTQtMi45ODgsMi42OTgtNS4zMDEsMy44NjctNy4wODEmI3hBOyAgICBsNy42MS01LjAwNWMxLjQsMC42MzEsMi4zODIsMi4xMzYsMy4xMDUsMi44OThjMS4wMzMsMC45NTUsMi42NTEsMy4xNDYsNC4yMTksNC41MzJsMTMuOTA2LDMwLjQwNWwzLjkxNy0yLjEyNXYtMS4yMDgmI3hBOyAgICBMMTM1LjE3NiwxODIuMDM4eiIgY2xhc3M9ImN1c3RvbS1jb2xvciIvPiYjeGE7PC9zdmc+;imageBackground=none;rounded=1;" vertex="1" parent="25">
                    <mxGeometry x="100.18000000000004" y="28" width="50.09" height="112" as="geometry"/>
                </mxCell>
                <mxCell id="29" value="" style="shape=image;editableCssRules=.*;verticalLabelPosition=bottom;labelBackgroundColor=default;verticalAlign=top;aspect=fixed;imageAspect=0;image=data:image/svg+xml,PHN2ZyB4bWw6c3BhY2U9InByZXNlcnZlIiB2aWV3Qm94PSIwIDAgMTQ0IDMyMS45IiBoZWlnaHQ9IjMyMS45cHgiIHdpZHRoPSIxNDRweCIgeT0iMHB4IiB4PSIwcHgiIHhtbG5zOnhsaW5rPSJodHRwOi8vd3d3LnczLm9yZy8xOTk5L3hsaW5rIiB4bWxucz0iaHR0cDovL3d3dy53My5vcmcvMjAwMC9zdmciIGlkPSJMYXllcl8xIiB2ZXJzaW9uPSIxLjEiPiYjeGE7ICA8c3R5bGU+LmN1c3RvbS1jb2xvciB7IGZpbGw6IHJnYigyNTUsIDAsIDApOyB9IDwvc3R5bGU+JiN4YTsgIDxwYXRoIGQ9Ik0xMzUuMTc2LDE4Mi4wMzhsLTEyLjI3LTI5Ljg4Yy0yLjA3My03Ljc1OCwwLjE0OC01LjkwNC0wLjM0NC0xMS4wMDhjLTIuNDQ4LTUuMTQ0LTEwLjIxMS0yOS4xNjktMTQuMTg4LTI5LjE2OVY5Ny41ODImI3hBOyAgICBjMC0xMy45MTgtMy4yMjQtMjUuMi03LjItMjUuMmMtNS45NjQsMC0xMS4xMTItOS4yMTYtMTEuMTEyLTE3LjE2OWMyLjc1LTAuMTg4LDYuMDgzLDEuMDg1LDcuMTQ2LTAuNDc5JiN4QTsgICAgYzAuNTgtMC42LDEuMzM1LTIuMzE0LDEuNS0zLjQxN2MwLjczNC00Ljg5NywyLjE3My0xMS41OTMsMC45NjEtMTUuOTU2bDMuMTgxLTAuMzc3YzAsMCw0LjI1LTE5LjU4My0xMy4xMjUtMjIuMjA4JiN4QTsgICAgQzYzLjA4NCw4Ljc1LDY0LjE2NywzOS41NjcsNjQuMTY3LDM5LjU2N2wzLjI2NS0wLjM4N2MtMC4wMiwwLjI4OS0wLjAzMiwwLjU5MS0wLjAyNywwLjkyMWMwLjE5OCwxLjE3MiwwLjUzNiwxLjk3MiwxLjAwOCwyLjM4JiN4QTsgICAgYzAuMDY1LDAuMTAzLDAuMTU4LDAuMjExLDAuMjczLDAuMzE5YzAuNTI3LDAuNDk0LDEuNDA0LDAuODc1LDEuOTU4LDAuODUxYzMuMjA1LDAuODY5LDUuNDA0LDMuODExLDUuMzMsNy4xMzEmI3hBOyAgICBjLTEuMjU2LDMuNjkzLTMuNzgsNi40MDItNi44NCw3LjM0Yy0wLjY0NCwwLjkzNS0yLjAwMSwxLjk2OC0zLjkwMSwyLjk2N2MtMy41NDcsMS44NjctNy41MDQsMy4xNDEtMTEuNDksMy42MDUmI3hBOyAgICBjLTIuNDYsMC4yODctNC45ODUsMC4zNi02Ljg5MywxLjc1OFYzNy4xNWgtMS4zMjh2MzAuNjYyYy0wLjA3LDAuMDk5LTAuMTQ0LDAuMTkzLTAuMjEsMC4zYy0zLjAyMyw0LjgwMi02LjU0NSw5LjMwMi05LjM5NiwxNC4yMSYjeEE7ICAgIGMtMi43OTksNC44MTctNS4wMTcsOS45NjUtNi43NDIsMTUuMjU5aC0xNC40Yy0zLjk3NywwLTcuMiwzLjIyNC03LjIsNy4yYzAsNS45NjQsMS42MTIsMTAuOCwzLjYsMTAuOCYjeEE7ICAgIGMwLjA5LTAuNDUsMC42MDEsNC4zNTUsMC41MjQsNy4zMzhzLTAuMTI1LDIuNDgzLTAuNTI0LDMuNDYyYzAsNy45NTMsNi40NDcsMTQuNCwxNC40LDE0LjR2MTQuMzk5YzAsNS45NjUsNi40NDcsMTAuOCwxNC40LDEwLjgmI3hBOyAgICBjMTIuNDYyLTAuMDgxLDguODE3LTAuMjQ4LDEwLjY2LDE0LjI1YzEuNjM1LDEyLjQwMiw0LjA2MSwyNC4yMjQsNy4wNSwzNC4zNTFjLTIuMDg2LDAuMjAzLTIuMjc5LDE3LjI4Mi0wLjQzLDM4LjE2JiN4QTsgICAgYzIuOTk1LDQ0Ljc0Mi03LjY5Miw1NC4wMzMtMy43NjUsNTQuNDgyTDk5LDMxMy40YzItMyw0LTgsMC0xMGMtMi4zMzMtMC4wODMtMy0xLTUuMzIzLTEuMjY3Yy0wLjUxNy0wLjE2Mi0xLjA0OS0wLjM0LTEuNTgzLTAuNTI1JiN4QTsgICAgYy0yLjAzLTAuNzA3LTQuMDc0LTEuNTMzLTUuMzg5LTIuMTE2bC00LjgzNS03LjUyN2MtMC4wNzgtMi43NDIsMC43MS01LjQ5OSwxLjMwNS03LjE4M2MwLjg2Mi02LjA2LDEuNzc2LTEyLjAxNSwyLjc0LTE3Ljg2JiN4QTsgICAgYzEuMjc3LTcuNzQ4LDAuNDYtMTQuNjg4LDMuMTc5LTIzLjU5NmMxLjA1Mi0zLjQ0NiwyLjI5MS02LjUxOSwyLjkxOC0xMC4wNDhjMC43ODMtNC40MTIsMS40MzctOC44NDcsMS45NjMtMTMuMjk3JiN4QTsgICAgYzIuODY3LTUuMDY4LDQuMzI5LTE1LjMwNywzLjYwMS0yNS4xOTljMy4zLTQuNjMyLDQuMjU5LTguODQ1LDIuNTQ2LTIyLjM4NEw5OS42NjcsMTU5LjljMS40MTQtMi45ODgsMi42OTgtNS4zMDEsMy44NjctNy4wODEmI3hBOyAgICBsNy42MS01LjAwNWMxLjQsMC42MzEsMi4zODIsMi4xMzYsMy4xMDUsMi44OThjMS4wMzMsMC45NTUsMi42NTEsMy4xNDYsNC4yMTksNC41MzJsMTMuOTA2LDMwLjQwNWwzLjkxNy0yLjEyNXYtMS4yMDgmI3hBOyAgICBMMTM1LjE3NiwxODIuMDM4eiIgY2xhc3M9ImN1c3RvbS1jb2xvciIvPiYjeGE7PC9zdmc+;imageBackground=none;rounded=1;" vertex="1" parent="25">
                    <mxGeometry x="150.27000000000004" y="28" width="50.09" height="112" as="geometry"/>
                </mxCell>
                <mxCell id="30" value="" style="shape=image;editableCssRules=.*;verticalLabelPosition=bottom;labelBackgroundColor=default;verticalAlign=top;aspect=fixed;imageAspect=0;image=data:image/svg+xml,PHN2ZyB4bWw6c3BhY2U9InByZXNlcnZlIiB2aWV3Qm94PSIwIDAgMTQ0IDMyMS45IiBoZWlnaHQ9IjMyMS45cHgiIHdpZHRoPSIxNDRweCIgeT0iMHB4IiB4PSIwcHgiIHhtbG5zOnhsaW5rPSJodHRwOi8vd3d3LnczLm9yZy8xOTk5L3hsaW5rIiB4bWxucz0iaHR0cDovL3d3dy53My5vcmcvMjAwMC9zdmciIGlkPSJMYXllcl8xIiB2ZXJzaW9uPSIxLjEiPiYjeGE7ICA8c3R5bGU+LmN1c3RvbS1jb2xvciB7IGZpbGw6IHJnYigwLCAwLCAyNTUpOyB9IDwvc3R5bGU+JiN4YTsgIDxwYXRoIGQ9Ik0xMzUuMTc2LDE4Mi4wMzhsLTEyLjI3LTI5Ljg4Yy0yLjA3My03Ljc1OCwwLjE0OC01LjkwNC0wLjM0NC0xMS4wMDhjLTIuNDQ4LTUuMTQ0LTEwLjIxMS0yOS4xNjktMTQuMTg4LTI5LjE2OVY5Ny41ODImI3hBOyAgICBjMC0xMy45MTgtMy4yMjQtMjUuMi03LjItMjUuMmMtNS45NjQsMC0xMS4xMTItOS4yMTYtMTEuMTEyLTE3LjE2OWMyLjc1LTAuMTg4LDYuMDgzLDEuMDg1LDcuMTQ2LTAuNDc5JiN4QTsgICAgYzAuNTgtMC42LDEuMzM1LTIuMzE0LDEuNS0zLjQxN2MwLjczNC00Ljg5NywyLjE3My0xMS41OTMsMC45NjEtMTUuOTU2bDMuMTgxLTAuMzc3YzAsMCw0LjI1LTE5LjU4My0xMy4xMjUtMjIuMjA4JiN4QTsgICAgQzYzLjA4NCw4Ljc1LDY0LjE2NywzOS41NjcsNjQuMTY3LDM5LjU2N2wzLjI2NS0wLjM4N2MtMC4wMiwwLjI4OS0wLjAzMiwwLjU5MS0wLjAyNywwLjkyMWMwLjE5OCwxLjE3MiwwLjUzNiwxLjk3MiwxLjAwOCwyLjM4JiN4QTsgICAgYzAuMDY1LDAuMTAzLDAuMTU4LDAuMjExLDAuMjczLDAuMzE5YzAuNTI3LDAuNDk0LDEuNDA0LDAuODc1LDEuOTU4LDAuODUxYzMuMjA1LDAuODY5LDUuNDA0LDMuODExLDUuMzMsNy4xMzEmI3hBOyAgICBjLTEuMjU2LDMuNjkzLTMuNzgsNi40MDItNi44NCw3LjM0Yy0wLjY0NCwwLjkzNS0yLjAwMSwxLjk2OC0zLjkwMSwyLjk2N2MtMy41NDcsMS44NjctNy41MDQsMy4xNDEtMTEuNDksMy42MDUmI3hBOyAgICBjLTIuNDYsMC4yODctNC45ODUsMC4zNi02Ljg5MywxLjc1OFYzNy4xNWgtMS4zMjh2MzAuNjYyYy0wLjA3LDAuMDk5LTAuMTQ0LDAuMTkzLTAuMjEsMC4zYy0zLjAyMyw0LjgwMi02LjU0NSw5LjMwMi05LjM5NiwxNC4yMSYjeEE7ICAgIGMtMi43OTksNC44MTctNS4wMTcsOS45NjUtNi43NDIsMTUuMjU5aC0xNC40Yy0zLjk3NywwLTcuMiwzLjIyNC03LjIsNy4yYzAsNS45NjQsMS42MTIsMTAuOCwzLjYsMTAuOCYjeEE7ICAgIGMwLjA5LTAuNDUsMC42MDEsNC4zNTUsMC41MjQsNy4zMzhzLTAuMTI1LDIuNDgzLTAuNTI0LDMuNDYyYzAsNy45NTMsNi40NDcsMTQuNCwxNC40LDE0LjR2MTQuMzk5YzAsNS45NjUsNi40NDcsMTAuOCwxNC40LDEwLjgmI3hBOyAgICBjMTIuNDYyLTAuMDgxLDguODE3LTAuMjQ4LDEwLjY2LDE0LjI1YzEuNjM1LDEyLjQwMiw0LjA2MSwyNC4yMjQsNy4wNSwzNC4zNTFjLTIuMDg2LDAuMjAzLTIuMjc5LDE3LjI4Mi0wLjQzLDM4LjE2JiN4QTsgICAgYzIuOTk1LDQ0Ljc0Mi03LjY5Miw1NC4wMzMtMy43NjUsNTQuNDgyTDk5LDMxMy40YzItMyw0LTgsMC0xMGMtMi4zMzMtMC4wODMtMy0xLTUuMzIzLTEuMjY3Yy0wLjUxNy0wLjE2Mi0xLjA0OS0wLjM0LTEuNTgzLTAuNTI1JiN4QTsgICAgYy0yLjAzLTAuNzA3LTQuMDc0LTEuNTMzLTUuMzg5LTIuMTE2bC00LjgzNS03LjUyN2MtMC4wNzgtMi43NDIsMC43MS01LjQ5OSwxLjMwNS03LjE4M2MwLjg2Mi02LjA2LDEuNzc2LTEyLjAxNSwyLjc0LTE3Ljg2JiN4QTsgICAgYzEuMjc3LTcuNzQ4LDAuNDYtMTQuNjg4LDMuMTc5LTIzLjU5NmMxLjA1Mi0zLjQ0NiwyLjI5MS02LjUxOSwyLjkxOC0xMC4wNDhjMC43ODMtNC40MTIsMS40MzctOC44NDcsMS45NjMtMTMuMjk3JiN4QTsgICAgYzIuODY3LTUuMDY4LDQuMzI5LTE1LjMwNywzLjYwMS0yNS4xOTljMy4zLTQuNjMyLDQuMjU5LTguODQ1LDIuNTQ2LTIyLjM4NEw5OS42NjcsMTU5LjljMS40MTQtMi45ODgsMi42OTgtNS4zMDEsMy44NjctNy4wODEmI3hBOyAgICBsNy42MS01LjAwNWMxLjQsMC42MzEsMi4zODIsMi4xMzYsMy4xMDUsMi44OThjMS4wMzMsMC45NTUsMi42NTEsMy4xNDYsNC4yMTksNC41MzJsMTMuOTA2LDMwLjQwNWwzLjkxNy0yLjEyNXYtMS4yMDgmI3hBOyAgICBMMTM1LjE3NiwxODIuMDM4eiIgY2xhc3M9ImN1c3RvbS1jb2xvciIvPiYjeGE7PC9zdmc+;imageBackground=none;rounded=1;" vertex="1" parent="25">
                    <mxGeometry x="200.36" y="28" width="50.09" height="112" as="geometry"/>
                </mxCell>
                <mxCell id="31" value="" style="shape=image;editableCssRules=.*;verticalLabelPosition=bottom;labelBackgroundColor=default;verticalAlign=top;aspect=fixed;imageAspect=0;image=data:image/svg+xml,PHN2ZyB4bWw6c3BhY2U9InByZXNlcnZlIiB2aWV3Qm94PSIwIDAgMTQ0IDMyMS45IiBoZWlnaHQ9IjMyMS45cHgiIHdpZHRoPSIxNDRweCIgeT0iMHB4IiB4PSIwcHgiIHhtbG5zOnhsaW5rPSJodHRwOi8vd3d3LnczLm9yZy8xOTk5L3hsaW5rIiB4bWxucz0iaHR0cDovL3d3dy53My5vcmcvMjAwMC9zdmciIGlkPSJMYXllcl8xIiB2ZXJzaW9uPSIxLjEiPiYjeGE7ICA8c3R5bGU+LmN1c3RvbS1jb2xvciB7IGZpbGw6IHJnYigwLCAwLCAyNTUpOyB9IDwvc3R5bGU+JiN4YTsgIDxwYXRoIGQ9Ik0xMzUuMTc2LDE4Mi4wMzhsLTEyLjI3LTI5Ljg4Yy0yLjA3My03Ljc1OCwwLjE0OC01LjkwNC0wLjM0NC0xMS4wMDhjLTIuNDQ4LTUuMTQ0LTEwLjIxMS0yOS4xNjktMTQuMTg4LTI5LjE2OVY5Ny41ODImI3hBOyAgICBjMC0xMy45MTgtMy4yMjQtMjUuMi03LjItMjUuMmMtNS45NjQsMC0xMS4xMTItOS4yMTYtMTEuMTEyLTE3LjE2OWMyLjc1LTAuMTg4LDYuMDgzLDEuMDg1LDcuMTQ2LTAuNDc5JiN4QTsgICAgYzAuNTgtMC42LDEuMzM1LTIuMzE0LDEuNS0zLjQxN2MwLjczNC00Ljg5NywyLjE3My0xMS41OTMsMC45NjEtMTUuOTU2bDMuMTgxLTAuMzc3YzAsMCw0LjI1LTE5LjU4My0xMy4xMjUtMjIuMjA4JiN4QTsgICAgQzYzLjA4NCw4Ljc1LDY0LjE2NywzOS41NjcsNjQuMTY3LDM5LjU2N2wzLjI2NS0wLjM4N2MtMC4wMiwwLjI4OS0wLjAzMiwwLjU5MS0wLjAyNywwLjkyMWMwLjE5OCwxLjE3MiwwLjUzNiwxLjk3MiwxLjAwOCwyLjM4JiN4QTsgICAgYzAuMDY1LDAuMTAzLDAuMTU4LDAuMjExLDAuMjczLDAuMzE5YzAuNTI3LDAuNDk0LDEuNDA0LDAuODc1LDEuOTU4LDAuODUxYzMuMjA1LDAuODY5LDUuNDA0LDMuODExLDUuMzMsNy4xMzEmI3hBOyAgICBjLTEuMjU2LDMuNjkzLTMuNzgsNi40MDItNi44NCw3LjM0Yy0wLjY0NCwwLjkzNS0yLjAwMSwxLjk2OC0zLjkwMSwyLjk2N2MtMy41NDcsMS44NjctNy41MDQsMy4xNDEtMTEuNDksMy42MDUmI3hBOyAgICBjLTIuNDYsMC4yODctNC45ODUsMC4zNi02Ljg5MywxLjc1OFYzNy4xNWgtMS4zMjh2MzAuNjYyYy0wLjA3LDAuMDk5LTAuMTQ0LDAuMTkzLTAuMjEsMC4zYy0zLjAyMyw0LjgwMi02LjU0NSw5LjMwMi05LjM5NiwxNC4yMSYjeEE7ICAgIGMtMi43OTksNC44MTctNS4wMTcsOS45NjUtNi43NDIsMTUuMjU5aC0xNC40Yy0zLjk3NywwLTcuMiwzLjIyNC03LjIsNy4yYzAsNS45NjQsMS42MTIsMTAuOCwzLjYsMTAuOCYjeEE7ICAgIGMwLjA5LTAuNDUsMC42MDEsNC4zNTUsMC41MjQsNy4zMzhzLTAuMTI1LDIuNDgzLTAuNTI0LDMuNDYyYzAsNy45NTMsNi40NDcsMTQuNCwxNC40LDE0LjR2MTQuMzk5YzAsNS45NjUsNi40NDcsMTAuOCwxNC40LDEwLjgmI3hBOyAgICBjMTIuNDYyLTAuMDgxLDguODE3LTAuMjQ4LDEwLjY2LDE0LjI1YzEuNjM1LDEyLjQwMiw0LjA2MSwyNC4yMjQsNy4wNSwzNC4zNTFjLTIuMDg2LDAuMjAzLTIuMjc5LDE3LjI4Mi0wLjQzLDM4LjE2JiN4QTsgICAgYzIuOTk1LDQ0Ljc0Mi03LjY5Miw1NC4wMzMtMy43NjUsNTQuNDgyTDk5LDMxMy40YzItMyw0LTgsMC0xMGMtMi4zMzMtMC4wODMtMy0xLTUuMzIzLTEuMjY3Yy0wLjUxNy0wLjE2Mi0xLjA0OS0wLjM0LTEuNTgzLTAuNTI1JiN4QTsgICAgYy0yLjAzLTAuNzA3LTQuMDc0LTEuNTMzLTUuMzg5LTIuMTE2bC00LjgzNS03LjUyN2MtMC4wNzgtMi43NDIsMC43MS01LjQ5OSwxLjMwNS03LjE4M2MwLjg2Mi02LjA2LDEuNzc2LTEyLjAxNSwyLjc0LTE3Ljg2JiN4QTsgICAgYzEuMjc3LTcuNzQ4LDAuNDYtMTQuNjg4LDMuMTc5LTIzLjU5NmMxLjA1Mi0zLjQ0NiwyLjI5MS02LjUxOSwyLjkxOC0xMC4wNDhjMC43ODMtNC40MTIsMS40MzctOC44NDcsMS45NjMtMTMuMjk3JiN4QTsgICAgYzIuODY3LTUuMDY4LDQuMzI5LTE1LjMwNywzLjYwMS0yNS4xOTljMy4zLTQuNjMyLDQuMjU5LTguODQ1LDIuNTQ2LTIyLjM4NEw5OS42NjcsMTU5LjljMS40MTQtMi45ODgsMi42OTgtNS4zMDEsMy44NjctNy4wODEmI3hBOyAgICBsNy42MS01LjAwNWMxLjQsMC42MzEsMi4zODIsMi4xMzYsMy4xMDUsMi44OThjMS4wMzMsMC45NTUsMi42NTEsMy4xNDYsNC4yMTksNC41MzJsMTMuOTA2LDMwLjQwNWwzLjkxNy0yLjEyNXYtMS4yMDgmI3hBOyAgICBMMTM1LjE3NiwxODIuMDM4eiIgY2xhc3M9ImN1c3RvbS1jb2xvciIvPiYjeGE7PC9zdmc+;imageBackground=none;rounded=1;" vertex="1" parent="25">
                    <mxGeometry x="250.45000000000005" y="28" width="50.09" height="112" as="geometry"/>
                </mxCell>
                <mxCell id="40" style="edgeStyle=none;html=1;exitX=1;exitY=0.5;exitDx=0;exitDy=0;entryX=0;entryY=0.5;entryDx=0;entryDy=0;fontColor=default;" edge="1" parent="1" source="34" target="8">
                    <mxGeometry relative="1" as="geometry"/>
                </mxCell>
                <mxCell id="34" value="&lt;div&gt;Headquarters&lt;/div&gt;" style="swimlane;whiteSpace=wrap;html=1;rounded=1;" vertex="1" parent="1">
                    <mxGeometry x="-820" y="160" width="100" height="140" as="geometry"/>
                </mxCell>
                <mxCell id="59" value="" style="shape=image;editableCssRules=.*;verticalLabelPosition=bottom;labelBackgroundColor=default;verticalAlign=top;aspect=fixed;imageAspect=0;image=data:image/svg+xml,PHN2ZyB4bWxuczp4bGluaz0iaHR0cDovL3d3dy53My5vcmcvMTk5OS94bGluayIgeG1sbnM9Imh0dHA6Ly93d3cudzMub3JnLzIwMDAvc3ZnIiB4bWw6c3BhY2U9InByZXNlcnZlIiB2aWV3Qm94PSIwIDAgMjU2IDI1NiIgeT0iMHB4IiB4PSIwcHgiIHZlcnNpb249IjEuMSI+CjxzdHlsZSB0eXBlPSJ0ZXh0L2NzcyI+LnN0MCB7IGZpbGw6IHJnYigyNTUsIDI1NSwgMjU1KTsgfSA8L3N0eWxlPgo8Zz48Zz48Zz48cGF0aCBkPSJNMTIwLjMsNS45Yy04LjQsMS4xLTE5LjMsNC42LTI3LjEsOC44Yy02LjksMy43LTExLjQsNy4xLTE2LjksMTIuNmMtNy45LDgtMTAuOCwxMy42LTEwLjksMjFjLTAuMSwzLjYsMC44LDcuMiwxLjcsNy4yYzAuMiwwLDIuNi0xLDUuMy0yLjNjMTMuMi02LjIsMzAuMi0xMC42LDQ2LjMtMTIuMWMyMC4yLTEuOCw0NS4xLDMsNjYsMTIuN2M0LjUsMi4xLDQuNSwyLjEsNS41LTIuM2MxLjUtNy40LTIuNy0xNi42LTExLjctMjUuM2MtOS43LTkuMy0yMy4xLTE2LjItMzcuNC0xOS4zQzEzNS42LDUuNywxMjUuNyw1LjIsMTIwLjMsNS45eiBNMTM0LDljMi44LDEuMyw1LjksNC45LDYuNyw3LjdjMi4xLDcuMS0wLjksMTMuNi03LjYsMTYuN2MtMi4yLDEtMy4zLDEuMi01LjksMWMtNy43LTAuNy0xMy02LjctMTIuNS0xNC40QzExNS40LDEwLjUsMTI1LjMsNC44LDEzNCw5eiIgY2xhc3M9InN0MCIvPjxwYXRoIGQ9Ik0xMTkuOCw0NS4yYy0xNCwwLjktMjkuMiw0LjgtNDQsMTFjLTMuMSwxLjMtNS41LDIuNS01LjUsMi43YzAsMC43LDguMiw0LjEsMTYuNiw3YzI3LjcsOS41LDUzLjYsOS41LDgxLjYsMC4yYzgtMi43LDE3LjItNi41LDE3LjItNy4xYzAtMC4zLTIuMi0xLjMtNS0yLjVjLTE1LjUtNi42LTI5LjctMTAuMi00NC45LTExLjNDMTI4LjIsNDQuNiwxMjguNSw0NC42LDExOS44LDQ1LjJ6IiBjbGFzcz0ic3QwIi8+PHBhdGggZD0iTTc2LjQsNzMuOGMwLDQuNCwwLDQuNi0xLjUsNS45Yy0yLDEuNi0zLDQuNC0zLjQsOS4zYy0wLjksMTEuMSwzLjksMjQuMiwxMi40LDMzLjNjMS41LDEuNiwyLjUsMy40LDMuMyw1LjljNy40LDIyLjksMjkuNCwzNy40LDQ5LjEsMzIuNWMxNC43LTMuNywyNy40LTE2LjMsMzIuNi0zMi41YzAuOC0yLjUsMS44LTQuMywzLjMtNS45YzguNC05LjEsMTMuMy0yMi4yLDEyLjQtMzMuM2MtMC40LTQuOS0xLjQtNy43LTMuNC05LjNjLTEuNC0xLjItMS41LTEuNC0xLjUtNS45YzAtMi42LTAuMi00LjYtMC40LTQuNmMtMC4zLDAtNC42LDEuNC05LjYsMy4xYy0xNyw1LjctMzEuOSw3LjctNDguNyw2LjZDMTA3LjgsNzgsOTMuMiw3NS4xLDgyLjMsNzFjLTIuNi0xLTUtMS44LTUuMy0xLjhDNzYuNiw2OS4yLDc2LjQsNzAuOCw3Ni40LDczLjh6IiBjbGFzcz0ic3QwIi8+PHBhdGggZD0iTTc2LjQsMTUwLjRjLTMwLjMsMTIuNC0zOC44LDE3LTQ2LjgsMjUuOGMtOC42LDkuNC0xNS44LDI1LjUtMTguNiw0MS41Yy0wLjksNS43LTEuMywxMy41LTAuNywxNS4yYzAuNywxLjYsOS4xLDQuOSwyMC45LDcuOWMzNy41LDkuOCwxMDQuMywxMi40LDE1OC4xLDYuM2MyMC44LTIuNCw0Mi41LTcuMyw1My0xMmMzLjgtMS43LDQtMi4xLDMuNi05LjdjLTAuOS0xNy41LTkuMy0zOC42LTE5LjgtNDkuOGMtOC04LjUtMTcuNC0xMy43LTQ3LjEtMjUuN2MtNS44LTIuNC0xMC43LTQuMy0xMC44LTQuM2MtMC4xLDAtMS40LDEuNS0yLjksMy40Yy0yLjIsMi45LTMuOCw2LjItMTAuOCwyMi44Yy00LjUsMTAuNy04LjQsMTkuNy04LjUsMTkuOGMtMC4yLDAuMi00LjItNC44LTktMTEuMWMtNC43LTYuMi04LjgtMTEuNC04LjktMTEuNHMtNC4xLDUuMS04LjksMTEuNGMtNC44LDYuMy04LjgsMTEuMy05LDExLjFjLTAuMi0wLjItNC05LjEtOC41LTE5LjljLTYuNC0xNS4yLTguNy0yMC4zLTEwLjYtMjIuOGMtMS40LTEuOC0yLjctMy4zLTMtMy4zQzg3LjYsMTQ1LjksODIuNCwxNDcuOSw3Ni40LDE1MC40eiBNNzcuOSwxNTcuMWMxLjIsMS43LDIuMywzLjEsMi40LDMuMWMwLDAsMS43LTAuNiwzLjUtMS4zYzEuOS0wLjcsMy41LTEuMiwzLjctMWMwLjIsMC4xLTAuNywxLjYtMS43LDMuMmMtMS4xLDEuNi0yLDMuMS0yLjEsMy4zYzAsMC4yLDAuOSwxLjYsMi4yLDMuM2MxLjMsMS43LDIuMSwzLjEsMS44LDMuMmMtMC4zLDAuMS0yLjEtMC4zLTMuOS0wLjljLTItMC43LTMuNS0xLTMuNy0wLjdjLTAuMiwwLjMtMS4xLDEuNy0yLDMuMWMtMC45LDEuNS0xLjksMi43LTIuMSwyLjdzLTAuNS0xLjctMC41LTMuOHYtMy44bC0zLjYtMS4xYy0xLjktMC42LTMuNi0xLjItMy42LTEuNWMwLTAuMiwxLjUtMC45LDMuNS0xLjZsMy40LTEuMmwtMC4yLTRjLTAuMS0yLjIsMC4xLTMuOSwwLjMtMy45Qzc1LjUsMTU0LDc2LjcsMTU1LjQsNzcuOSwxNTcuMXogTTE4MS4xLDE1Ny45bC0wLjIsNGwzLjUsMS4yYzEuOSwwLjcsMy40LDEuNCwzLjQsMS42YzAsMC4zLTEuNiwwLjktMy42LDEuNWwtMy42LDEuMXYzLjhjMCwyLjEtMC4yLDMuOC0wLjUsMy44cy0xLjItMS4xLTIuMS0yLjVjLTIuNC0zLjctMi41LTMuOC01LjktMi42Yy00LjQsMS41LTQuNywxLjItMi0yLjRsMi4zLTMuMmwtMi0yLjhjLTIuMi0zLjEtMi43LTQuMi0xLjItMy42YzAuOSwwLjQsNi4zLDIuMyw2LjUsMi4zYzAsMCwxLjEtMS40LDIuMy0zLjFzMi41LTMuMSwyLjctMy4xUzE4MS4yLDE1NS43LDE4MS4xLDE1Ny45eiBNNTcuMiwxNzAuOGwyLjMsM2wzLjQtMS4yYzEuOS0wLjcsMy42LTEuMiwzLjktMS4xYzAuMywwLjEtMC41LDEuNS0xLjYsMy4xYy0xLjIsMS42LTIuMSwzLjItMi4xLDMuNWMwLDAuMywxLDEuOCwyLjEsMy40YzEuMiwxLjUsMiwyLjksMS45LDNjLTAuMiwwLjItMS43LTAuMi0zLjUtMC44Yy0xLjgtMC42LTMuNC0xLTMuNi0xYy0wLjIsMC0xLjMsMS40LTIuNSwzLjFzLTIuNCwyLjktMi42LDIuOGMtMC4zLTAuMi0wLjUtMS45LTAuNS00di0zLjdsLTMuNi0xYy0yLTAuNi0zLjUtMS4yLTMuNC0xLjVjMC4xLTAuMywxLjYtMSwzLjUtMS42bDMuMy0xLjFsMC4yLTMuOWMwLjEtMi4xLDAuMy0zLjksMC40LTMuOUM1NC44LDE2Ny44LDU1LjksMTY5LjEsNTcuMiwxNzAuOHogTTIwNS4xLDE3Ni43YzEuOCwwLjYsMy40LDEuMywzLjUsMS42YzAuMSwwLjMtMS40LDAuOS0zLjQsMS41bC0zLjYsMXYzLjdjMCwyLTAuMiwzLjgtMC41LDRjLTAuMiwwLjItMS40LTEuMS0yLjYtMi44Yy0xLjItMS43LTIuMy0zLjEtMi41LTMuMXMtMS44LDAuNS0zLjYsMWMtMS44LDAuNi0zLjQsMC45LTMuNSwwLjhjLTAuMi0wLjEsMC43LTEuNSwxLjktM2MxLjEtMS41LDIuMS0zLjEsMi4xLTMuNGMwLTAuMy0wLjktMS45LTIuMS0zLjVjLTEuMS0xLjYtMS44LTMtMS42LTMuMWMwLjMtMC4xLDIsMC40LDMuOSwxLjFsMy40LDEuMmwyLjQtMy4ybDIuNC0zLjFsMC4zLDRsMC4zLDRMMjA1LjEsMTc2Ljd6IiBjbGFzcz0ic3QwIi8+PC9nPjwvZz48L2c+Cjwvc3ZnPg==;" vertex="1" parent="34">
                    <mxGeometry x="5" y="39" width="90" height="90" as="geometry"/>
                </mxCell>
                <mxCell id="43" style="edgeStyle=none;html=1;exitX=1;exitY=1;exitDx=0;exitDy=0;entryX=0;entryY=0.5;entryDx=0;entryDy=0;fontColor=default;" edge="1" parent="1" source="8" target="26">
                    <mxGeometry relative="1" as="geometry"/>
                </mxCell>
                <mxCell id="52" value="Support Element" style="swimlane;whiteSpace=wrap;html=1;rounded=1;dashed=1;dashPattern=12 12;" vertex="1" parent="1">
                    <mxGeometry x="-684.68" y="360" width="150.27000000000007" height="140" as="geometry"/>
                </mxCell>
                <mxCell id="53" style="edgeStyle=orthogonalEdgeStyle;rounded=1;orthogonalLoop=1;jettySize=auto;html=1;exitX=1;exitY=0.5;exitDx=0;exitDy=0;entryX=0;entryY=0.5;entryDx=0;entryDy=0;" edge="1" parent="52" source="54" target="55">
                    <mxGeometry relative="1" as="geometry"/>
                </mxCell>
                <mxCell id="54" value="" style="shape=image;editableCssRules=.*;verticalLabelPosition=bottom;labelBackgroundColor=default;verticalAlign=top;aspect=fixed;imageAspect=0;image=data:image/svg+xml,PHN2ZyB4bWw6c3BhY2U9InByZXNlcnZlIiB2aWV3Qm94PSIwIDAgMTQ0IDMyMS45IiBoZWlnaHQ9IjMyMS45cHgiIHdpZHRoPSIxNDRweCIgeT0iMHB4IiB4PSIwcHgiIHhtbG5zOnhsaW5rPSJodHRwOi8vd3d3LnczLm9yZy8xOTk5L3hsaW5rIiB4bWxucz0iaHR0cDovL3d3dy53My5vcmcvMjAwMC9zdmciIGlkPSJMYXllcl8xIiB2ZXJzaW9uPSIxLjEiPiYjeGE7ICA8c3R5bGU+LmN1c3RvbS1jb2xvciB7IGZpbGw6IHJnYigwLCAwLCAwKTsgfSA8L3N0eWxlPiYjeGE7ICA8cGF0aCBkPSJNMTM1LjE3NiwxODIuMDM4bC0xMi4yNy0yOS44OGMtMi4wNzMtNy43NTgsMC4xNDgtNS45MDQtMC4zNDQtMTEuMDA4Yy0yLjQ0OC01LjE0NC0xMC4yMTEtMjkuMTY5LTE0LjE4OC0yOS4xNjlWOTcuNTgyJiN4QTsgICAgYzAtMTMuOTE4LTMuMjI0LTI1LjItNy4yLTI1LjJjLTUuOTY0LDAtMTEuMTEyLTkuMjE2LTExLjExMi0xNy4xNjljMi43NS0wLjE4OCw2LjA4MywxLjA4NSw3LjE0Ni0wLjQ3OSYjeEE7ICAgIGMwLjU4LTAuNiwxLjMzNS0yLjMxNCwxLjUtMy40MTdjMC43MzQtNC44OTcsMi4xNzMtMTEuNTkzLDAuOTYxLTE1Ljk1NmwzLjE4MS0wLjM3N2MwLDAsNC4yNS0xOS41ODMtMTMuMTI1LTIyLjIwOCYjeEE7ICAgIEM2My4wODQsOC43NSw2NC4xNjcsMzkuNTY3LDY0LjE2NywzOS41NjdsMy4yNjUtMC4zODdjLTAuMDIsMC4yODktMC4wMzIsMC41OTEtMC4wMjcsMC45MjFjMC4xOTgsMS4xNzIsMC41MzYsMS45NzIsMS4wMDgsMi4zOCYjeEE7ICAgIGMwLjA2NSwwLjEwMywwLjE1OCwwLjIxMSwwLjI3MywwLjMxOWMwLjUyNywwLjQ5NCwxLjQwNCwwLjg3NSwxLjk1OCwwLjg1MWMzLjIwNSwwLjg2OSw1LjQwNCwzLjgxMSw1LjMzLDcuMTMxJiN4QTsgICAgYy0xLjI1NiwzLjY5My0zLjc4LDYuNDAyLTYuODQsNy4zNGMtMC42NDQsMC45MzUtMi4wMDEsMS45NjgtMy45MDEsMi45NjdjLTMuNTQ3LDEuODY3LTcuNTA0LDMuMTQxLTExLjQ5LDMuNjA1JiN4QTsgICAgYy0yLjQ2LDAuMjg3LTQuOTg1LDAuMzYtNi44OTMsMS43NThWMzcuMTVoLTEuMzI4djMwLjY2MmMtMC4wNywwLjA5OS0wLjE0NCwwLjE5My0wLjIxLDAuM2MtMy4wMjMsNC44MDItNi41NDUsOS4zMDItOS4zOTYsMTQuMjEmI3hBOyAgICBjLTIuNzk5LDQuODE3LTUuMDE3LDkuOTY1LTYuNzQyLDE1LjI1OWgtMTQuNGMtMy45NzcsMC03LjIsMy4yMjQtNy4yLDcuMmMwLDUuOTY0LDEuNjEyLDEwLjgsMy42LDEwLjgmI3hBOyAgICBjMC4wOS0wLjQ1LDAuNjAxLDQuMzU1LDAuNTI0LDcuMzM4cy0wLjEyNSwyLjQ4My0wLjUyNCwzLjQ2MmMwLDcuOTUzLDYuNDQ3LDE0LjQsMTQuNCwxNC40djE0LjM5OWMwLDUuOTY1LDYuNDQ3LDEwLjgsMTQuNCwxMC44JiN4QTsgICAgYzEyLjQ2Mi0wLjA4MSw4LjgxNy0wLjI0OCwxMC42NiwxNC4yNWMxLjYzNSwxMi40MDIsNC4wNjEsMjQuMjI0LDcuMDUsMzQuMzUxYy0yLjA4NiwwLjIwMy0yLjI3OSwxNy4yODItMC40MywzOC4xNiYjeEE7ICAgIGMyLjk5NSw0NC43NDItNy42OTIsNTQuMDMzLTMuNzY1LDU0LjQ4Mkw5OSwzMTMuNGMyLTMsNC04LDAtMTBjLTIuMzMzLTAuMDgzLTMtMS01LjMyMy0xLjI2N2MtMC41MTctMC4xNjItMS4wNDktMC4zNC0xLjU4My0wLjUyNSYjeEE7ICAgIGMtMi4wMy0wLjcwNy00LjA3NC0xLjUzMy01LjM4OS0yLjExNmwtNC44MzUtNy41MjdjLTAuMDc4LTIuNzQyLDAuNzEtNS40OTksMS4zMDUtNy4xODNjMC44NjItNi4wNiwxLjc3Ni0xMi4wMTUsMi43NC0xNy44NiYjeEE7ICAgIGMxLjI3Ny03Ljc0OCwwLjQ2LTE0LjY4OCwzLjE3OS0yMy41OTZjMS4wNTItMy40NDYsMi4yOTEtNi41MTksMi45MTgtMTAuMDQ4YzAuNzgzLTQuNDEyLDEuNDM3LTguODQ3LDEuOTYzLTEzLjI5NyYjeEE7ICAgIGMyLjg2Ny01LjA2OCw0LjMyOS0xNS4zMDcsMy42MDEtMjUuMTk5YzMuMy00LjYzMiw0LjI1OS04Ljg0NSwyLjU0Ni0yMi4zODRMOTkuNjY3LDE1OS45YzEuNDE0LTIuOTg4LDIuNjk4LTUuMzAxLDMuODY3LTcuMDgxJiN4QTsgICAgbDcuNjEtNS4wMDVjMS40LDAuNjMxLDIuMzgyLDIuMTM2LDMuMTA1LDIuODk4YzEuMDMzLDAuOTU1LDIuNjUxLDMuMTQ2LDQuMjE5LDQuNTMybDEzLjkwNiwzMC40MDVsMy45MTctMi4xMjV2LTEuMjA4JiN4QTsgICAgTDEzNS4xNzYsMTgyLjAzOHoiIGNsYXNzPSJjdXN0b20tY29sb3IiLz4mI3hhOzwvc3ZnPg==;imageBackground=none;rounded=1;" vertex="1" parent="52">
                    <mxGeometry y="28" width="50.09" height="112" as="geometry"/>
                </mxCell>
                <mxCell id="55" value="" style="shape=image;editableCssRules=.*;verticalLabelPosition=bottom;labelBackgroundColor=default;verticalAlign=top;aspect=fixed;imageAspect=0;image=data:image/svg+xml,PHN2ZyB4bWw6c3BhY2U9InByZXNlcnZlIiB2aWV3Qm94PSIwIDAgMTQ0IDMyMS45IiBoZWlnaHQ9IjMyMS45cHgiIHdpZHRoPSIxNDRweCIgeT0iMHB4IiB4PSIwcHgiIHhtbG5zOnhsaW5rPSJodHRwOi8vd3d3LnczLm9yZy8xOTk5L3hsaW5rIiB4bWxucz0iaHR0cDovL3d3dy53My5vcmcvMjAwMC9zdmciIGlkPSJMYXllcl8xIiB2ZXJzaW9uPSIxLjEiPiYjeGE7ICA8c3R5bGU+LmN1c3RvbS1jb2xvciB7IGZpbGw6IHJnYigwLCAwLCAwKTsgfSA8L3N0eWxlPiYjeGE7ICA8cGF0aCBkPSJNMTM1LjE3NiwxODIuMDM4bC0xMi4yNy0yOS44OGMtMi4wNzMtNy43NTgsMC4xNDgtNS45MDQtMC4zNDQtMTEuMDA4Yy0yLjQ0OC01LjE0NC0xMC4yMTEtMjkuMTY5LTE0LjE4OC0yOS4xNjlWOTcuNTgyJiN4QTsgICAgYzAtMTMuOTE4LTMuMjI0LTI1LjItNy4yLTI1LjJjLTUuOTY0LDAtMTEuMTEyLTkuMjE2LTExLjExMi0xNy4xNjljMi43NS0wLjE4OCw2LjA4MywxLjA4NSw3LjE0Ni0wLjQ3OSYjeEE7ICAgIGMwLjU4LTAuNiwxLjMzNS0yLjMxNCwxLjUtMy40MTdjMC43MzQtNC44OTcsMi4xNzMtMTEuNTkzLDAuOTYxLTE1Ljk1NmwzLjE4MS0wLjM3N2MwLDAsNC4yNS0xOS41ODMtMTMuMTI1LTIyLjIwOCYjeEE7ICAgIEM2My4wODQsOC43NSw2NC4xNjcsMzkuNTY3LDY0LjE2NywzOS41NjdsMy4yNjUtMC4zODdjLTAuMDIsMC4yODktMC4wMzIsMC41OTEtMC4wMjcsMC45MjFjMC4xOTgsMS4xNzIsMC41MzYsMS45NzIsMS4wMDgsMi4zOCYjeEE7ICAgIGMwLjA2NSwwLjEwMywwLjE1OCwwLjIxMSwwLjI3MywwLjMxOWMwLjUyNywwLjQ5NCwxLjQwNCwwLjg3NSwxLjk1OCwwLjg1MWMzLjIwNSwwLjg2OSw1LjQwNCwzLjgxMSw1LjMzLDcuMTMxJiN4QTsgICAgYy0xLjI1NiwzLjY5My0zLjc4LDYuNDAyLTYuODQsNy4zNGMtMC42NDQsMC45MzUtMi4wMDEsMS45NjgtMy45MDEsMi45NjdjLTMuNTQ3LDEuODY3LTcuNTA0LDMuMTQxLTExLjQ5LDMuNjA1JiN4QTsgICAgYy0yLjQ2LDAuMjg3LTQuOTg1LDAuMzYtNi44OTMsMS43NThWMzcuMTVoLTEuMzI4djMwLjY2MmMtMC4wNywwLjA5OS0wLjE0NCwwLjE5My0wLjIxLDAuM2MtMy4wMjMsNC44MDItNi41NDUsOS4zMDItOS4zOTYsMTQuMjEmI3hBOyAgICBjLTIuNzk5LDQuODE3LTUuMDE3LDkuOTY1LTYuNzQyLDE1LjI1OWgtMTQuNGMtMy45NzcsMC03LjIsMy4yMjQtNy4yLDcuMmMwLDUuOTY0LDEuNjEyLDEwLjgsMy42LDEwLjgmI3hBOyAgICBjMC4wOS0wLjQ1LDAuNjAxLDQuMzU1LDAuNTI0LDcuMzM4cy0wLjEyNSwyLjQ4My0wLjUyNCwzLjQ2MmMwLDcuOTUzLDYuNDQ3LDE0LjQsMTQuNCwxNC40djE0LjM5OWMwLDUuOTY1LDYuNDQ3LDEwLjgsMTQuNCwxMC44JiN4QTsgICAgYzEyLjQ2Mi0wLjA4MSw4LjgxNy0wLjI0OCwxMC42NiwxNC4yNWMxLjYzNSwxMi40MDIsNC4wNjEsMjQuMjI0LDcuMDUsMzQuMzUxYy0yLjA4NiwwLjIwMy0yLjI3OSwxNy4yODItMC40MywzOC4xNiYjeEE7ICAgIGMyLjk5NSw0NC43NDItNy42OTIsNTQuMDMzLTMuNzY1LDU0LjQ4Mkw5OSwzMTMuNGMyLTMsNC04LDAtMTBjLTIuMzMzLTAuMDgzLTMtMS01LjMyMy0xLjI2N2MtMC41MTctMC4xNjItMS4wNDktMC4zNC0xLjU4My0wLjUyNSYjeEE7ICAgIGMtMi4wMy0wLjcwNy00LjA3NC0xLjUzMy01LjM4OS0yLjExNmwtNC44MzUtNy41MjdjLTAuMDc4LTIuNzQyLDAuNzEtNS40OTksMS4zMDUtNy4xODNjMC44NjItNi4wNiwxLjc3Ni0xMi4wMTUsMi43NC0xNy44NiYjeEE7ICAgIGMxLjI3Ny03Ljc0OCwwLjQ2LTE0LjY4OCwzLjE3OS0yMy41OTZjMS4wNTItMy40NDYsMi4yOTEtNi41MTksMi45MTgtMTAuMDQ4YzAuNzgzLTQuNDEyLDEuNDM3LTguODQ3LDEuOTYzLTEzLjI5NyYjeEE7ICAgIGMyLjg2Ny01LjA2OCw0LjMyOS0xNS4zMDcsMy42MDEtMjUuMTk5YzMuMy00LjYzMiw0LjI1OS04Ljg0NSwyLjU0Ni0yMi4zODRMOTkuNjY3LDE1OS45YzEuNDE0LTIuOTg4LDIuNjk4LTUuMzAxLDMuODY3LTcuMDgxJiN4QTsgICAgbDcuNjEtNS4wMDVjMS40LDAuNjMxLDIuMzgyLDIuMTM2LDMuMTA1LDIuODk4YzEuMDMzLDAuOTU1LDIuNjUxLDMuMTQ2LDQuMjE5LDQuNTMybDEzLjkwNiwzMC40MDVsMy45MTctMi4xMjV2LTEuMjA4JiN4QTsgICAgTDEzNS4xNzYsMTgyLjAzOHoiIGNsYXNzPSJjdXN0b20tY29sb3IiLz4mI3hhOzwvc3ZnPg==;imageBackground=none;rounded=1;" vertex="1" parent="52">
                    <mxGeometry x="50.090000000000025" y="28" width="50.09" height="112" as="geometry"/>
                </mxCell>
                <mxCell id="56" value="" style="shape=image;editableCssRules=.*;verticalLabelPosition=bottom;labelBackgroundColor=default;verticalAlign=top;aspect=fixed;imageAspect=0;image=data:image/svg+xml,PHN2ZyB4bWxuczp4bGluaz0iaHR0cDovL3d3dy53My5vcmcvMTk5OS94bGluayIgeG1sbnM9Imh0dHA6Ly93d3cudzMub3JnLzIwMDAvc3ZnIiB4bWw6c3BhY2U9InByZXNlcnZlIiB2aWV3Qm94PSIwIDAgMTQ0IDMyMS45IiBoZWlnaHQ9IjMyMS45cHgiIHdpZHRoPSIxNDRweCIgeT0iMHB4IiB4PSIwcHgiIGlkPSJMYXllcl8xIiB2ZXJzaW9uPSIxLjEiPgogIDxzdHlsZT4uY3VzdG9tLWNvbG9yIHsgZmlsbDogcmdiKDc3LCA3NywgNzcpOyB9IDwvc3R5bGU+CiAgPHBhdGggZD0iTTEzNS4xNzYsMTgyLjAzOGwtMTIuMjctMjkuODhjLTIuMDczLTcuNzU4LDAuMTQ4LTUuOTA0LTAuMzQ0LTExLjAwOGMtMi40NDgtNS4xNDQtMTAuMjExLTI5LjE2OS0xNC4xODgtMjkuMTY5Vjk3LjU4MiYjMTA7ICAgIGMwLTEzLjkxOC0zLjIyNC0yNS4yLTcuMi0yNS4yYy01Ljk2NCwwLTExLjExMi05LjIxNi0xMS4xMTItMTcuMTY5YzIuNzUtMC4xODgsNi4wODMsMS4wODUsNy4xNDYtMC40NzkmIzEwOyAgICBjMC41OC0wLjYsMS4zMzUtMi4zMTQsMS41LTMuNDE3YzAuNzM0LTQuODk3LDIuMTczLTExLjU5MywwLjk2MS0xNS45NTZsMy4xODEtMC4zNzdjMCwwLDQuMjUtMTkuNTgzLTEzLjEyNS0yMi4yMDgmIzEwOyAgICBDNjMuMDg0LDguNzUsNjQuMTY3LDM5LjU2Nyw2NC4xNjcsMzkuNTY3bDMuMjY1LTAuMzg3Yy0wLjAyLDAuMjg5LTAuMDMyLDAuNTkxLTAuMDI3LDAuOTIxYzAuMTk4LDEuMTcyLDAuNTM2LDEuOTcyLDEuMDA4LDIuMzgmIzEwOyAgICBjMC4wNjUsMC4xMDMsMC4xNTgsMC4yMTEsMC4yNzMsMC4zMTljMC41MjcsMC40OTQsMS40MDQsMC44NzUsMS45NTgsMC44NTFjMy4yMDUsMC44NjksNS40MDQsMy44MTEsNS4zMyw3LjEzMSYjMTA7ICAgIGMtMS4yNTYsMy42OTMtMy43OCw2LjQwMi02Ljg0LDcuMzRjLTAuNjQ0LDAuOTM1LTIuMDAxLDEuOTY4LTMuOTAxLDIuOTY3Yy0zLjU0NywxLjg2Ny03LjUwNCwzLjE0MS0xMS40OSwzLjYwNSYjMTA7ICAgIGMtMi40NiwwLjI4Ny00Ljk4NSwwLjM2LTYuODkzLDEuNzU4VjM3LjE1aC0xLjMyOHYzMC42NjJjLTAuMDcsMC4wOTktMC4xNDQsMC4xOTMtMC4yMSwwLjNjLTMuMDIzLDQuODAyLTYuNTQ1LDkuMzAyLTkuMzk2LDE0LjIxJiMxMDsgICAgYy0yLjc5OSw0LjgxNy01LjAxNyw5Ljk2NS02Ljc0MiwxNS4yNTloLTE0LjRjLTMuOTc3LDAtNy4yLDMuMjI0LTcuMiw3LjJjMCw1Ljk2NCwxLjYxMiwxMC44LDMuNiwxMC44JiMxMDsgICAgYzAuMDktMC40NSwwLjYwMSw0LjM1NSwwLjUyNCw3LjMzOHMtMC4xMjUsMi40ODMtMC41MjQsMy40NjJjMCw3Ljk1Myw2LjQ0NywxNC40LDE0LjQsMTQuNHYxNC4zOTljMCw1Ljk2NSw2LjQ0NywxMC44LDE0LjQsMTAuOCYjMTA7ICAgIGMxMi40NjItMC4wODEsOC44MTctMC4yNDgsMTAuNjYsMTQuMjVjMS42MzUsMTIuNDAyLDQuMDYxLDI0LjIyNCw3LjA1LDM0LjM1MWMtMi4wODYsMC4yMDMtMi4yNzksMTcuMjgyLTAuNDMsMzguMTYmIzEwOyAgICBjMi45OTUsNDQuNzQyLTcuNjkyLDU0LjAzMy0zLjc2NSw1NC40ODJMOTksMzEzLjRjMi0zLDQtOCwwLTEwYy0yLjMzMy0wLjA4My0zLTEtNS4zMjMtMS4yNjdjLTAuNTE3LTAuMTYyLTEuMDQ5LTAuMzQtMS41ODMtMC41MjUmIzEwOyAgICBjLTIuMDMtMC43MDctNC4wNzQtMS41MzMtNS4zODktMi4xMTZsLTQuODM1LTcuNTI3Yy0wLjA3OC0yLjc0MiwwLjcxLTUuNDk5LDEuMzA1LTcuMTgzYzAuODYyLTYuMDYsMS43NzYtMTIuMDE1LDIuNzQtMTcuODYmIzEwOyAgICBjMS4yNzctNy43NDgsMC40Ni0xNC42ODgsMy4xNzktMjMuNTk2YzEuMDUyLTMuNDQ2LDIuMjkxLTYuNTE5LDIuOTE4LTEwLjA0OGMwLjc4My00LjQxMiwxLjQzNy04Ljg0NywxLjk2My0xMy4yOTcmIzEwOyAgICBjMi44NjctNS4wNjgsNC4zMjktMTUuMzA3LDMuNjAxLTI1LjE5OWMzLjMtNC42MzIsNC4yNTktOC44NDUsMi41NDYtMjIuMzg0TDk5LjY2NywxNTkuOWMxLjQxNC0yLjk4OCwyLjY5OC01LjMwMSwzLjg2Ny03LjA4MSYjMTA7ICAgIGw3LjYxLTUuMDA1YzEuNCwwLjYzMSwyLjM4MiwyLjEzNiwzLjEwNSwyLjg5OGMxLjAzMywwLjk1NSwyLjY1MSwzLjE0Niw0LjIxOSw0LjUzMmwxMy45MDYsMzAuNDA1bDMuOTE3LTIuMTI1di0xLjIwOCYjMTA7ICAgIEwxMzUuMTc2LDE4Mi4wMzh6IiBjbGFzcz0iY3VzdG9tLWNvbG9yIi8+Cjwvc3ZnPg==;imageBackground=none;fillStyle=zigzag-line;rounded=1;" vertex="1" parent="52">
                    <mxGeometry x="100.18000000000006" y="28" width="50.09" height="112" as="geometry"/>
                </mxCell>
            </root>
        </mxGraphModel>
    </diagram>
</mxfile>